<mxfile host="app.diagrams.net" modified="2021-11-15T12:29:44.522Z" agent="5.0 (Macintosh; Intel Mac OS X 10_15_0) AppleWebKit/537.36 (KHTML, like Gecko) Chrome/94.0.4606.81 Safari/537.36" etag="mO4gftlFQMITurBV1X7U" version="15.6.8" type="github" pages="3">
  <diagram id="C5RBs43oDa-KdzZeNtuy" name="监控日志系统">
    <mxGraphModel dx="2008" dy="661" grid="1" gridSize="10" guides="1" tooltips="1" connect="1" arrows="1" fold="1" page="1" pageScale="1" pageWidth="827" pageHeight="1169" math="0" shadow="0">
      <root>
        <mxCell id="WIyWlLk6GJQsqaUBKTNV-0" />
        <mxCell id="WIyWlLk6GJQsqaUBKTNV-1" parent="WIyWlLk6GJQsqaUBKTNV-0" />
        <mxCell id="aa8etOfTE0e0-ZUicZg9-0" value="" style="endArrow=none;dashed=1;html=1;rounded=0;" edge="1" parent="WIyWlLk6GJQsqaUBKTNV-1">
          <mxGeometry width="50" height="50" relative="1" as="geometry">
            <mxPoint x="20" y="710" as="sourcePoint" />
            <mxPoint x="800" y="710" as="targetPoint" />
          </mxGeometry>
        </mxCell>
        <mxCell id="aa8etOfTE0e0-ZUicZg9-50" style="rounded=0;orthogonalLoop=1;jettySize=auto;html=1;exitX=0.5;exitY=1;exitDx=0;exitDy=0;entryX=0.5;entryY=0;entryDx=0;entryDy=0;strokeColor=#EA6B66;dashed=1;" edge="1" parent="WIyWlLk6GJQsqaUBKTNV-1" source="aa8etOfTE0e0-ZUicZg9-1" target="aa8etOfTE0e0-ZUicZg9-33">
          <mxGeometry relative="1" as="geometry" />
        </mxCell>
        <mxCell id="aa8etOfTE0e0-ZUicZg9-51" value="直接上报数据到&lt;br&gt;kafka集群" style="edgeLabel;html=1;align=center;verticalAlign=middle;resizable=0;points=[];" vertex="1" connectable="0" parent="aa8etOfTE0e0-ZUicZg9-50">
          <mxGeometry x="-0.2984" y="7" relative="1" as="geometry">
            <mxPoint y="-13" as="offset" />
          </mxGeometry>
        </mxCell>
        <mxCell id="aa8etOfTE0e0-ZUicZg9-1" value="会见业务客户端" style="rounded=1;whiteSpace=wrap;html=1;fontSize=12;glass=0;strokeWidth=1;shadow=0;" vertex="1" parent="WIyWlLk6GJQsqaUBKTNV-1">
          <mxGeometry x="614" y="490" width="120" height="40" as="geometry" />
        </mxCell>
        <mxCell id="aa8etOfTE0e0-ZUicZg9-59" style="rounded=0;orthogonalLoop=1;jettySize=auto;html=1;exitX=1;exitY=0.5;exitDx=0;exitDy=0;entryX=0;entryY=0.5;entryDx=0;entryDy=0;" edge="1" parent="WIyWlLk6GJQsqaUBKTNV-1" source="aa8etOfTE0e0-ZUicZg9-39" target="aa8etOfTE0e0-ZUicZg9-58">
          <mxGeometry relative="1" as="geometry" />
        </mxCell>
        <mxCell id="aa8etOfTE0e0-ZUicZg9-3" value="夜莺监控系统(独立于业务部署)" style="swimlane;align=center;fillColor=#d5e8d4;strokeColor=#82b366;" vertex="1" parent="WIyWlLk6GJQsqaUBKTNV-1">
          <mxGeometry x="20" y="740" width="360" height="220" as="geometry" />
        </mxCell>
        <mxCell id="aa8etOfTE0e0-ZUicZg9-29" style="edgeStyle=orthogonalEdgeStyle;curved=1;rounded=0;orthogonalLoop=1;jettySize=auto;html=1;entryX=0;entryY=0.5;entryDx=0;entryDy=0;" edge="1" parent="aa8etOfTE0e0-ZUicZg9-3" source="aa8etOfTE0e0-ZUicZg9-27" target="aa8etOfTE0e0-ZUicZg9-28">
          <mxGeometry relative="1" as="geometry" />
        </mxCell>
        <mxCell id="aa8etOfTE0e0-ZUicZg9-27" value="nginx服务" style="rounded=1;whiteSpace=wrap;html=1;align=center;" vertex="1" parent="aa8etOfTE0e0-ZUicZg9-3">
          <mxGeometry x="10" y="110" width="66" height="30" as="geometry" />
        </mxCell>
        <mxCell id="aa8etOfTE0e0-ZUicZg9-40" style="edgeStyle=orthogonalEdgeStyle;curved=1;rounded=0;orthogonalLoop=1;jettySize=auto;html=1;exitX=1;exitY=0.5;exitDx=0;exitDy=0;entryX=0;entryY=0.5;entryDx=0;entryDy=0;" edge="1" parent="aa8etOfTE0e0-ZUicZg9-3" source="aa8etOfTE0e0-ZUicZg9-28" target="aa8etOfTE0e0-ZUicZg9-39">
          <mxGeometry relative="1" as="geometry" />
        </mxCell>
        <mxCell id="aa8etOfTE0e0-ZUicZg9-49" style="edgeStyle=orthogonalEdgeStyle;curved=1;rounded=0;orthogonalLoop=1;jettySize=auto;html=1;exitX=0.5;exitY=1;exitDx=0;exitDy=0;entryX=0.5;entryY=0;entryDx=0;entryDy=0;" edge="1" parent="aa8etOfTE0e0-ZUicZg9-3" source="aa8etOfTE0e0-ZUicZg9-28" target="aa8etOfTE0e0-ZUicZg9-46">
          <mxGeometry relative="1" as="geometry" />
        </mxCell>
        <mxCell id="aa8etOfTE0e0-ZUicZg9-28" value="n9e-server服务集群" style="rounded=1;whiteSpace=wrap;html=1;align=center;" vertex="1" parent="aa8etOfTE0e0-ZUicZg9-3">
          <mxGeometry x="110" y="55" width="70" height="75" as="geometry" />
        </mxCell>
        <mxCell id="aa8etOfTE0e0-ZUicZg9-37" value="mysql基础数据" style="whiteSpace=wrap;html=1;rounded=1;" vertex="1" parent="aa8etOfTE0e0-ZUicZg9-3">
          <mxGeometry x="250" y="50" width="100" height="40" as="geometry" />
        </mxCell>
        <mxCell id="aa8etOfTE0e0-ZUicZg9-38" value="" style="edgeStyle=orthogonalEdgeStyle;curved=1;rounded=0;orthogonalLoop=1;jettySize=auto;html=1;exitX=1;exitY=0.5;exitDx=0;exitDy=0;" edge="1" parent="aa8etOfTE0e0-ZUicZg9-3" source="aa8etOfTE0e0-ZUicZg9-28" target="aa8etOfTE0e0-ZUicZg9-37">
          <mxGeometry relative="1" as="geometry" />
        </mxCell>
        <mxCell id="aa8etOfTE0e0-ZUicZg9-39" value="prometheus时序数据" style="whiteSpace=wrap;html=1;rounded=1;" vertex="1" parent="aa8etOfTE0e0-ZUicZg9-3">
          <mxGeometry x="250" y="100" width="100" height="40" as="geometry" />
        </mxCell>
        <mxCell id="aa8etOfTE0e0-ZUicZg9-48" value="" style="edgeStyle=orthogonalEdgeStyle;curved=1;rounded=0;orthogonalLoop=1;jettySize=auto;html=1;" edge="1" parent="aa8etOfTE0e0-ZUicZg9-3" source="aa8etOfTE0e0-ZUicZg9-46" target="aa8etOfTE0e0-ZUicZg9-47">
          <mxGeometry relative="1" as="geometry" />
        </mxCell>
        <mxCell id="aa8etOfTE0e0-ZUicZg9-46" value="根据告警策略进行告警" style="whiteSpace=wrap;html=1;rounded=1;" vertex="1" parent="aa8etOfTE0e0-ZUicZg9-3">
          <mxGeometry x="95" y="160" width="100" height="40" as="geometry" />
        </mxCell>
        <mxCell id="aa8etOfTE0e0-ZUicZg9-47" value="企业微信、钉钉、邮箱、短信等方式" style="whiteSpace=wrap;html=1;rounded=1;" vertex="1" parent="aa8etOfTE0e0-ZUicZg9-3">
          <mxGeometry x="230" y="155" width="120" height="50" as="geometry" />
        </mxCell>
        <mxCell id="aa8etOfTE0e0-ZUicZg9-4" value="业务机器(以一台为例)" style="swimlane;align=center;fillColor=#dae8fc;strokeColor=#6c8ebf;" vertex="1" parent="WIyWlLk6GJQsqaUBKTNV-1">
          <mxGeometry x="150" y="470" width="280" height="170" as="geometry" />
        </mxCell>
        <mxCell id="aa8etOfTE0e0-ZUicZg9-7" value="mc服务" style="rounded=1;whiteSpace=wrap;html=1;align=center;" vertex="1" parent="aa8etOfTE0e0-ZUicZg9-4">
          <mxGeometry x="10" y="40" width="80" height="30" as="geometry" />
        </mxCell>
        <mxCell id="aa8etOfTE0e0-ZUicZg9-8" value="mp服务" style="rounded=1;whiteSpace=wrap;html=1;align=center;" vertex="1" parent="aa8etOfTE0e0-ZUicZg9-4">
          <mxGeometry x="100" y="40" width="80" height="30" as="geometry" />
        </mxCell>
        <mxCell id="aa8etOfTE0e0-ZUicZg9-9" value="xx服务" style="rounded=1;whiteSpace=wrap;html=1;align=center;" vertex="1" parent="aa8etOfTE0e0-ZUicZg9-4">
          <mxGeometry x="190" y="40" width="80" height="30" as="geometry" />
        </mxCell>
        <mxCell id="aa8etOfTE0e0-ZUicZg9-10" value="n9e-agent服务" style="rounded=1;whiteSpace=wrap;html=1;align=center;fillColor=#dae8fc;strokeColor=#6c8ebf;" vertex="1" parent="aa8etOfTE0e0-ZUicZg9-4">
          <mxGeometry x="10" y="107.5" width="130" height="40" as="geometry" />
        </mxCell>
        <mxCell id="aa8etOfTE0e0-ZUicZg9-35" value="filebeat服务" style="rounded=1;whiteSpace=wrap;html=1;align=center;fillColor=#dae8fc;strokeColor=#6c8ebf;" vertex="1" parent="aa8etOfTE0e0-ZUicZg9-4">
          <mxGeometry x="150" y="107.5" width="120" height="40" as="geometry" />
        </mxCell>
        <mxCell id="aa8etOfTE0e0-ZUicZg9-5" value="" style="endArrow=classic;html=1;rounded=0;entryX=0.75;entryY=0;entryDx=0;entryDy=0;exitX=0.25;exitY=1;exitDx=0;exitDy=0;dashed=1;strokeColor=#EA6B66;" edge="1" parent="WIyWlLk6GJQsqaUBKTNV-1" source="aa8etOfTE0e0-ZUicZg9-1" target="aa8etOfTE0e0-ZUicZg9-28">
          <mxGeometry relative="1" as="geometry">
            <mxPoint x="350" y="710" as="sourcePoint" />
            <mxPoint x="450" y="710" as="targetPoint" />
          </mxGeometry>
        </mxCell>
        <mxCell id="aa8etOfTE0e0-ZUicZg9-6" value="直接调用夜莺api&lt;br&gt;进行数据上报" style="edgeLabel;resizable=0;html=1;align=center;verticalAlign=middle;" connectable="0" vertex="1" parent="aa8etOfTE0e0-ZUicZg9-5">
          <mxGeometry relative="1" as="geometry">
            <mxPoint x="79" y="-53" as="offset" />
          </mxGeometry>
        </mxCell>
        <mxCell id="aa8etOfTE0e0-ZUicZg9-12" value="" style="endArrow=classic;html=1;rounded=0;curved=1;exitX=0.5;exitY=1;exitDx=0;exitDy=0;entryX=0.25;entryY=0;entryDx=0;entryDy=0;" edge="1" parent="WIyWlLk6GJQsqaUBKTNV-1" source="aa8etOfTE0e0-ZUicZg9-10" target="aa8etOfTE0e0-ZUicZg9-28">
          <mxGeometry relative="1" as="geometry">
            <mxPoint x="350" y="660" as="sourcePoint" />
            <mxPoint x="450" y="660" as="targetPoint" />
          </mxGeometry>
        </mxCell>
        <mxCell id="aa8etOfTE0e0-ZUicZg9-131" value="数据上报" style="edgeLabel;html=1;align=center;verticalAlign=middle;resizable=0;points=[];" vertex="1" connectable="0" parent="aa8etOfTE0e0-ZUicZg9-12">
          <mxGeometry x="-0.1517" y="-1" relative="1" as="geometry">
            <mxPoint as="offset" />
          </mxGeometry>
        </mxCell>
        <mxCell id="aa8etOfTE0e0-ZUicZg9-18" value="夜莺agent采集能力" style="swimlane;childLayout=stackLayout;resizeParent=1;resizeParentMax=0;horizontal=1;startSize=20;horizontalStack=0;align=center;fillColor=#fff2cc;strokeColor=#d6b656;" vertex="1" parent="WIyWlLk6GJQsqaUBKTNV-1">
          <mxGeometry x="-90" y="410" width="150" height="250" as="geometry" />
        </mxCell>
        <mxCell id="aa8etOfTE0e0-ZUicZg9-19" value="基础能力" style="swimlane;startSize=20;horizontal=0;align=center;fillColor=#fff2cc;strokeColor=#d6b656;" vertex="1" parent="aa8etOfTE0e0-ZUicZg9-18">
          <mxGeometry y="20" width="150" height="70" as="geometry">
            <mxRectangle y="20" width="250" height="40" as="alternateBounds" />
          </mxGeometry>
        </mxCell>
        <mxCell id="aa8etOfTE0e0-ZUicZg9-24" value="&lt;ul&gt;&lt;li&gt;CPU信息&lt;/li&gt;&lt;li&gt;内存信息&lt;/li&gt;&lt;li&gt;磁盘信息&lt;/li&gt;&lt;li&gt;网络信息&lt;/li&gt;&lt;/ul&gt;" style="text;strokeColor=none;fillColor=none;html=1;whiteSpace=wrap;verticalAlign=middle;overflow=hidden;" vertex="1" parent="aa8etOfTE0e0-ZUicZg9-19">
          <mxGeometry x="25" width="105" height="70" as="geometry" />
        </mxCell>
        <mxCell id="aa8etOfTE0e0-ZUicZg9-20" value="内置采集能力" style="swimlane;startSize=20;horizontal=0;align=center;fillColor=#fff2cc;strokeColor=#d6b656;" vertex="1" parent="aa8etOfTE0e0-ZUicZg9-18">
          <mxGeometry y="90" width="150" height="70" as="geometry" />
        </mxCell>
        <mxCell id="aa8etOfTE0e0-ZUicZg9-26" value="&lt;ul&gt;&lt;li&gt;进程采集&lt;/li&gt;&lt;li&gt;端口采集&lt;/li&gt;&lt;li&gt;自定义插件&lt;/li&gt;&lt;li&gt;log日志&lt;/li&gt;&lt;/ul&gt;" style="text;strokeColor=none;fillColor=none;html=1;whiteSpace=wrap;verticalAlign=middle;overflow=hidden;" vertex="1" parent="aa8etOfTE0e0-ZUicZg9-20">
          <mxGeometry x="22.5" y="-10" width="105" height="75" as="geometry" />
        </mxCell>
        <mxCell id="aa8etOfTE0e0-ZUicZg9-21" value="软件采集" style="swimlane;startSize=20;horizontal=0;align=center;fillColor=#fff2cc;strokeColor=#d6b656;" vertex="1" parent="aa8etOfTE0e0-ZUicZg9-18">
          <mxGeometry y="160" width="150" height="90" as="geometry" />
        </mxCell>
        <mxCell id="aa8etOfTE0e0-ZUicZg9-30" value="&lt;ul&gt;&lt;li&gt;mysql性能采集&lt;/li&gt;&lt;li&gt;SNMP&lt;/li&gt;&lt;li&gt;JMX&lt;/li&gt;&lt;/ul&gt;" style="text;strokeColor=none;fillColor=none;html=1;whiteSpace=wrap;verticalAlign=middle;overflow=hidden;" vertex="1" parent="aa8etOfTE0e0-ZUicZg9-21">
          <mxGeometry x="20" y="5" width="130" height="80" as="geometry" />
        </mxCell>
        <mxCell id="aa8etOfTE0e0-ZUicZg9-60" style="rounded=0;orthogonalLoop=1;jettySize=auto;html=1;exitX=0;exitY=0.5;exitDx=0;exitDy=0;entryX=1;entryY=0.5;entryDx=0;entryDy=0;" edge="1" parent="WIyWlLk6GJQsqaUBKTNV-1" source="aa8etOfTE0e0-ZUicZg9-42" target="aa8etOfTE0e0-ZUicZg9-58">
          <mxGeometry relative="1" as="geometry" />
        </mxCell>
        <mxCell id="aa8etOfTE0e0-ZUicZg9-31" value="日志系统(独立于业务部署)" style="swimlane;align=center;fillColor=#d5e8d4;strokeColor=#82b366;" vertex="1" parent="WIyWlLk6GJQsqaUBKTNV-1">
          <mxGeometry x="520" y="740" width="290" height="220" as="geometry" />
        </mxCell>
        <mxCell id="aa8etOfTE0e0-ZUicZg9-41" style="edgeStyle=orthogonalEdgeStyle;curved=1;rounded=0;orthogonalLoop=1;jettySize=auto;html=1;exitX=0.5;exitY=1;exitDx=0;exitDy=0;entryX=0.5;entryY=0;entryDx=0;entryDy=0;" edge="1" parent="aa8etOfTE0e0-ZUicZg9-31" source="aa8etOfTE0e0-ZUicZg9-33" target="aa8etOfTE0e0-ZUicZg9-34">
          <mxGeometry relative="1" as="geometry">
            <mxPoint x="88" y="110" as="targetPoint" />
          </mxGeometry>
        </mxCell>
        <mxCell id="aa8etOfTE0e0-ZUicZg9-33" value="kafka集群 用于 数据缓存" style="rounded=1;whiteSpace=wrap;html=1;align=center;" vertex="1" parent="aa8etOfTE0e0-ZUicZg9-31">
          <mxGeometry x="40" y="60" width="226" height="30" as="geometry" />
        </mxCell>
        <mxCell id="aa8etOfTE0e0-ZUicZg9-45" style="edgeStyle=orthogonalEdgeStyle;curved=1;rounded=0;orthogonalLoop=1;jettySize=auto;html=1;exitX=0.5;exitY=1;exitDx=0;exitDy=0;entryX=0.5;entryY=0;entryDx=0;entryDy=0;" edge="1" parent="aa8etOfTE0e0-ZUicZg9-31" source="aa8etOfTE0e0-ZUicZg9-34" target="aa8etOfTE0e0-ZUicZg9-42">
          <mxGeometry relative="1" as="geometry" />
        </mxCell>
        <mxCell id="aa8etOfTE0e0-ZUicZg9-34" value="fluentd集群 用于 数据清洗" style="rounded=1;whiteSpace=wrap;html=1;align=center;" vertex="1" parent="aa8etOfTE0e0-ZUicZg9-31">
          <mxGeometry x="40" y="110" width="226" height="30" as="geometry" />
        </mxCell>
        <mxCell id="aa8etOfTE0e0-ZUicZg9-42" value="es集群 用于 数据存储" style="rounded=1;whiteSpace=wrap;html=1;align=center;" vertex="1" parent="aa8etOfTE0e0-ZUicZg9-31">
          <mxGeometry x="40" y="160" width="226" height="30" as="geometry" />
        </mxCell>
        <mxCell id="aa8etOfTE0e0-ZUicZg9-36" style="rounded=0;orthogonalLoop=1;jettySize=auto;html=1;exitX=0.5;exitY=1;exitDx=0;exitDy=0;entryX=0.5;entryY=0;entryDx=0;entryDy=0;" edge="1" parent="WIyWlLk6GJQsqaUBKTNV-1" source="aa8etOfTE0e0-ZUicZg9-35" target="aa8etOfTE0e0-ZUicZg9-33">
          <mxGeometry relative="1" as="geometry" />
        </mxCell>
        <mxCell id="aa8etOfTE0e0-ZUicZg9-58" value="grafana&lt;br&gt;数据展示" style="rounded=1;whiteSpace=wrap;html=1;align=center;" vertex="1" parent="WIyWlLk6GJQsqaUBKTNV-1">
          <mxGeometry x="410" y="830" width="84" height="60" as="geometry" />
        </mxCell>
        <mxCell id="aa8etOfTE0e0-ZUicZg9-61" value="监控的本质逻辑" style="swimlane;align=center;fillColor=#d5e8d4;strokeColor=#82b366;" vertex="1" parent="WIyWlLk6GJQsqaUBKTNV-1">
          <mxGeometry y="40" width="820" height="310" as="geometry" />
        </mxCell>
        <mxCell id="aa8etOfTE0e0-ZUicZg9-117" value="数据" style="swimlane;fontStyle=0;childLayout=stackLayout;horizontal=1;startSize=30;horizontalStack=0;resizeParent=1;resizeParentMax=0;resizeLast=0;collapsible=1;marginBottom=0;align=center;fillColor=#60a917;strokeColor=#2D7600;fontColor=#ffffff;" vertex="1" parent="aa8etOfTE0e0-ZUicZg9-61">
          <mxGeometry x="30" y="110" width="160" height="150" as="geometry" />
        </mxCell>
        <mxCell id="aa8etOfTE0e0-ZUicZg9-118" value="基础数据：&#xa;CPU、内存、磁盘、网卡" style="text;strokeColor=none;fillColor=none;align=left;verticalAlign=middle;spacingLeft=4;spacingRight=4;overflow=hidden;points=[[0,0.5],[1,0.5]];portConstraint=eastwest;rotatable=0;" vertex="1" parent="aa8etOfTE0e0-ZUicZg9-117">
          <mxGeometry y="30" width="160" height="40" as="geometry" />
        </mxCell>
        <mxCell id="aa8etOfTE0e0-ZUicZg9-119" value="常见软件：&#xa;mysql等" style="text;strokeColor=none;fillColor=none;align=left;verticalAlign=middle;spacingLeft=4;spacingRight=4;overflow=hidden;points=[[0,0.5],[1,0.5]];portConstraint=eastwest;rotatable=0;" vertex="1" parent="aa8etOfTE0e0-ZUicZg9-117">
          <mxGeometry y="70" width="160" height="40" as="geometry" />
        </mxCell>
        <mxCell id="aa8etOfTE0e0-ZUicZg9-120" value="业务数据：&#xa;比如netmp的带宽统计等" style="text;strokeColor=none;fillColor=none;align=left;verticalAlign=middle;spacingLeft=4;spacingRight=4;overflow=hidden;points=[[0,0.5],[1,0.5]];portConstraint=eastwest;rotatable=0;" vertex="1" parent="aa8etOfTE0e0-ZUicZg9-117">
          <mxGeometry y="110" width="160" height="40" as="geometry" />
        </mxCell>
        <mxCell id="aa8etOfTE0e0-ZUicZg9-124" value="发送" style="edgeStyle=none;rounded=0;orthogonalLoop=1;jettySize=auto;html=1;strokeColor=#000000;" edge="1" parent="aa8etOfTE0e0-ZUicZg9-61" source="aa8etOfTE0e0-ZUicZg9-121" target="aa8etOfTE0e0-ZUicZg9-123">
          <mxGeometry relative="1" as="geometry" />
        </mxCell>
        <mxCell id="aa8etOfTE0e0-ZUicZg9-121" value="agent端" style="whiteSpace=wrap;html=1;align=center;fillColor=#dae8fc;strokeColor=#6c8ebf;" vertex="1" parent="aa8etOfTE0e0-ZUicZg9-61">
          <mxGeometry x="280" y="165" width="120" height="60" as="geometry" />
        </mxCell>
        <mxCell id="aa8etOfTE0e0-ZUicZg9-122" value="收集" style="edgeStyle=none;rounded=0;orthogonalLoop=1;jettySize=auto;html=1;entryX=0;entryY=0.5;entryDx=0;entryDy=0;strokeColor=#000000;" edge="1" parent="aa8etOfTE0e0-ZUicZg9-61" source="aa8etOfTE0e0-ZUicZg9-119" target="aa8etOfTE0e0-ZUicZg9-121">
          <mxGeometry relative="1" as="geometry" />
        </mxCell>
        <mxCell id="aa8etOfTE0e0-ZUicZg9-126" value="api" style="edgeStyle=none;rounded=0;orthogonalLoop=1;jettySize=auto;html=1;entryX=0;entryY=0.5;entryDx=0;entryDy=0;strokeColor=#000000;" edge="1" parent="aa8etOfTE0e0-ZUicZg9-61" source="aa8etOfTE0e0-ZUicZg9-123" target="aa8etOfTE0e0-ZUicZg9-125">
          <mxGeometry relative="1" as="geometry" />
        </mxCell>
        <mxCell id="aa8etOfTE0e0-ZUicZg9-128" value="通过策略" style="edgeStyle=none;rounded=0;orthogonalLoop=1;jettySize=auto;html=1;exitX=1;exitY=1;exitDx=0;exitDy=0;entryX=0;entryY=0.75;entryDx=0;entryDy=0;strokeColor=#000000;" edge="1" parent="aa8etOfTE0e0-ZUicZg9-61" source="aa8etOfTE0e0-ZUicZg9-123" target="aa8etOfTE0e0-ZUicZg9-127">
          <mxGeometry relative="1" as="geometry" />
        </mxCell>
        <mxCell id="aa8etOfTE0e0-ZUicZg9-123" value="server端" style="whiteSpace=wrap;html=1;fillColor=#dae8fc;strokeColor=#6c8ebf;" vertex="1" parent="aa8etOfTE0e0-ZUicZg9-61">
          <mxGeometry x="480" y="165" width="120" height="60" as="geometry" />
        </mxCell>
        <mxCell id="aa8etOfTE0e0-ZUicZg9-125" value="web展示" style="whiteSpace=wrap;html=1;" vertex="1" parent="aa8etOfTE0e0-ZUicZg9-61">
          <mxGeometry x="680" y="90" width="120" height="60" as="geometry" />
        </mxCell>
        <mxCell id="aa8etOfTE0e0-ZUicZg9-127" value="告警通知" style="whiteSpace=wrap;html=1;" vertex="1" parent="aa8etOfTE0e0-ZUicZg9-61">
          <mxGeometry x="680" y="240" width="120" height="60" as="geometry" />
        </mxCell>
        <mxCell id="aa8etOfTE0e0-ZUicZg9-129" value="关键是如何收集数据？" style="shape=callout;whiteSpace=wrap;html=1;perimeter=calloutPerimeter;align=center;position2=0.42;fillColor=#fff2cc;strokeColor=#d6b656;" vertex="1" parent="aa8etOfTE0e0-ZUicZg9-61">
          <mxGeometry x="236" y="70" width="124" height="90" as="geometry" />
        </mxCell>
        <mxCell id="aa8etOfTE0e0-ZUicZg9-106" value="夜莺收集netmp带宽统计示例" style="swimlane;align=center;fillColor=#d5e8d4;strokeColor=#82b366;" vertex="1" parent="WIyWlLk6GJQsqaUBKTNV-1">
          <mxGeometry x="4" y="1010" width="756" height="400" as="geometry" />
        </mxCell>
        <mxCell id="aa8etOfTE0e0-ZUicZg9-107" value="redis服务" style="rounded=1;whiteSpace=wrap;html=1;align=center;" vertex="1" parent="aa8etOfTE0e0-ZUicZg9-106">
          <mxGeometry x="400" y="70" width="66" height="30" as="geometry" />
        </mxCell>
        <mxCell id="aa8etOfTE0e0-ZUicZg9-108" style="edgeStyle=none;rounded=0;orthogonalLoop=1;jettySize=auto;html=1;exitX=1;exitY=0.5;exitDx=0;exitDy=0;entryX=0;entryY=0.5;entryDx=0;entryDy=0;strokeColor=#000000;" edge="1" parent="aa8etOfTE0e0-ZUicZg9-106" source="aa8etOfTE0e0-ZUicZg9-109" target="aa8etOfTE0e0-ZUicZg9-107">
          <mxGeometry relative="1" as="geometry" />
        </mxCell>
        <mxCell id="aa8etOfTE0e0-ZUicZg9-109" value="devmgr" style="rounded=1;whiteSpace=wrap;html=1;align=center;" vertex="1" parent="aa8etOfTE0e0-ZUicZg9-106">
          <mxGeometry x="238" y="70" width="66" height="30" as="geometry" />
        </mxCell>
        <mxCell id="aa8etOfTE0e0-ZUicZg9-110" style="edgeStyle=none;rounded=0;orthogonalLoop=1;jettySize=auto;html=1;exitX=1;exitY=0.5;exitDx=0;exitDy=0;entryX=0;entryY=0.5;entryDx=0;entryDy=0;strokeColor=#000000;" edge="1" parent="aa8etOfTE0e0-ZUicZg9-106" source="aa8etOfTE0e0-ZUicZg9-111" target="aa8etOfTE0e0-ZUicZg9-109">
          <mxGeometry relative="1" as="geometry" />
        </mxCell>
        <mxCell id="aa8etOfTE0e0-ZUicZg9-111" value="netmp" style="rounded=1;whiteSpace=wrap;html=1;align=center;" vertex="1" parent="aa8etOfTE0e0-ZUicZg9-106">
          <mxGeometry x="90" y="70" width="66" height="30" as="geometry" />
        </mxCell>
        <mxCell id="aa8etOfTE0e0-ZUicZg9-112" value="夜莺agent服务" style="swimlane;align=center;" vertex="1" parent="aa8etOfTE0e0-ZUicZg9-106">
          <mxGeometry x="70" y="170" width="430" height="100" as="geometry" />
        </mxCell>
        <mxCell id="aa8etOfTE0e0-ZUicZg9-113" value="&lt;span&gt;&lt;li class=&quot;&quot; style=&quot;margin-bottom: 0pt ; margin-top: 0pt ; font-size: 11pt ; color: #494949 ; line-height: 1.7&quot;&gt;&lt;span class=&quot;ql-author-4609158&quot;&gt;netmp_bandwidthinfo.py&amp;nbsp; 自定义插件&lt;/span&gt;&lt;/li&gt;&lt;/span&gt;" style="rounded=1;whiteSpace=wrap;html=1;align=center;" vertex="1" parent="aa8etOfTE0e0-ZUicZg9-112">
          <mxGeometry x="44" y="45" width="326" height="45" as="geometry" />
        </mxCell>
        <mxCell id="aa8etOfTE0e0-ZUicZg9-114" value="根据脚本逻辑从redis读取数据，并组装数据发送到夜莺server端" style="endArrow=classic;startArrow=classic;html=1;rounded=0;strokeColor=#000000;entryX=0.5;entryY=1;entryDx=0;entryDy=0;exitX=0.75;exitY=0;exitDx=0;exitDy=0;" edge="1" parent="aa8etOfTE0e0-ZUicZg9-106" source="aa8etOfTE0e0-ZUicZg9-113" target="aa8etOfTE0e0-ZUicZg9-107">
          <mxGeometry x="0.5457" y="-19" width="50" height="50" relative="1" as="geometry">
            <mxPoint x="370" y="160" as="sourcePoint" />
            <mxPoint x="420" y="110" as="targetPoint" />
            <mxPoint as="offset" />
          </mxGeometry>
        </mxCell>
        <mxCell id="aa8etOfTE0e0-ZUicZg9-115" value="夜莺server服务" style="rounded=1;whiteSpace=wrap;html=1;align=center;" vertex="1" parent="aa8etOfTE0e0-ZUicZg9-106">
          <mxGeometry x="172" y="330" width="228" height="60" as="geometry" />
        </mxCell>
        <mxCell id="aa8etOfTE0e0-ZUicZg9-116" value="发送处理好的数据" style="edgeStyle=none;rounded=0;orthogonalLoop=1;jettySize=auto;html=1;exitX=0.75;exitY=1;exitDx=0;exitDy=0;entryX=0.5;entryY=0;entryDx=0;entryDy=0;strokeColor=#000000;" edge="1" parent="aa8etOfTE0e0-ZUicZg9-106" source="aa8etOfTE0e0-ZUicZg9-113" target="aa8etOfTE0e0-ZUicZg9-115">
          <mxGeometry relative="1" as="geometry" />
        </mxCell>
        <mxCell id="aa8etOfTE0e0-ZUicZg9-130" value="采集能力说明" style="shape=singleArrow;direction=west;whiteSpace=wrap;html=1;align=center;" vertex="1" parent="WIyWlLk6GJQsqaUBKTNV-1">
          <mxGeometry x="60" y="570" width="100" height="60" as="geometry" />
        </mxCell>
        <mxCell id="aa8etOfTE0e0-ZUicZg9-132" value="日志系统mcr日志麦克风状态收集" style="swimlane;align=center;fillColor=#d5e8d4;strokeColor=#82b366;" vertex="1" parent="WIyWlLk6GJQsqaUBKTNV-1">
          <mxGeometry y="1480" width="766" height="440" as="geometry" />
        </mxCell>
        <mxCell id="aa8etOfTE0e0-ZUicZg9-133" value="kafka集群" style="rounded=1;whiteSpace=wrap;html=1;align=center;" vertex="1" parent="aa8etOfTE0e0-ZUicZg9-132">
          <mxGeometry x="536" y="60" width="66" height="30" as="geometry" />
        </mxCell>
        <mxCell id="aa8etOfTE0e0-ZUicZg9-134" value="生产数据&lt;br&gt;topic=mc_log" style="edgeStyle=none;rounded=0;orthogonalLoop=1;jettySize=auto;html=1;exitX=1;exitY=0.5;exitDx=0;exitDy=0;entryX=0;entryY=0.5;entryDx=0;entryDy=0;strokeColor=#000000;" edge="1" parent="aa8etOfTE0e0-ZUicZg9-132" source="aa8etOfTE0e0-ZUicZg9-135" target="aa8etOfTE0e0-ZUicZg9-133">
          <mxGeometry relative="1" as="geometry" />
        </mxCell>
        <mxCell id="aa8etOfTE0e0-ZUicZg9-135" value="filebeat服务" style="rounded=1;whiteSpace=wrap;html=1;align=center;" vertex="1" parent="aa8etOfTE0e0-ZUicZg9-132">
          <mxGeometry x="276" y="57.5" width="84" height="35" as="geometry" />
        </mxCell>
        <mxCell id="aa8etOfTE0e0-ZUicZg9-138" value="fluentd服务" style="swimlane;align=center;" vertex="1" parent="aa8etOfTE0e0-ZUicZg9-132">
          <mxGeometry x="276" y="200" width="450" height="140" as="geometry" />
        </mxCell>
        <mxCell id="aa8etOfTE0e0-ZUicZg9-139" value="&lt;span&gt;&lt;li class=&quot;&quot; style=&quot;margin-bottom: 0pt ; margin-top: 0pt ; font-size: 11pt ; color: #494949 ; line-height: 1.7&quot;&gt;&lt;span class=&quot;ql-author-4609158&quot;&gt;filter_mute_status.rb&amp;nbsp; 自定义过滤插件&lt;/span&gt;&lt;/li&gt;&lt;/span&gt;" style="rounded=1;whiteSpace=wrap;html=1;align=center;" vertex="1" parent="aa8etOfTE0e0-ZUicZg9-138">
          <mxGeometry x="44" y="45" width="326" height="45" as="geometry" />
        </mxCell>
        <mxCell id="aa8etOfTE0e0-ZUicZg9-140" value="消费数据" style="endArrow=classic;startArrow=classic;html=1;rounded=0;strokeColor=#000000;entryX=0.5;entryY=1;entryDx=0;entryDy=0;" edge="1" parent="aa8etOfTE0e0-ZUicZg9-132" target="aa8etOfTE0e0-ZUicZg9-133">
          <mxGeometry x="0.3831" y="2" width="50" height="50" relative="1" as="geometry">
            <mxPoint x="569" y="200" as="sourcePoint" />
            <mxPoint x="420" y="110" as="targetPoint" />
            <mxPoint as="offset" />
          </mxGeometry>
        </mxCell>
        <mxCell id="aa8etOfTE0e0-ZUicZg9-141" value="es服务&lt;br&gt;" style="rounded=1;whiteSpace=wrap;html=1;align=center;" vertex="1" parent="aa8etOfTE0e0-ZUicZg9-132">
          <mxGeometry x="18" y="214" width="170" height="60" as="geometry" />
        </mxCell>
        <mxCell id="aa8etOfTE0e0-ZUicZg9-144" value="实时收集" style="edgeStyle=none;rounded=0;orthogonalLoop=1;jettySize=auto;html=1;exitX=1;exitY=0.5;exitDx=0;exitDy=0;exitPerimeter=0;strokeColor=#000000;" edge="1" parent="aa8etOfTE0e0-ZUicZg9-132" source="aa8etOfTE0e0-ZUicZg9-143" target="aa8etOfTE0e0-ZUicZg9-135">
          <mxGeometry relative="1" as="geometry" />
        </mxCell>
        <mxCell id="aa8etOfTE0e0-ZUicZg9-143" value="mc.log-2021-11-05" style="strokeWidth=2;html=1;shape=mxgraph.flowchart.document2;whiteSpace=wrap;size=0.25;align=center;" vertex="1" parent="aa8etOfTE0e0-ZUicZg9-132">
          <mxGeometry x="46" y="40" width="114" height="70" as="geometry" />
        </mxCell>
      </root>
    </mxGraphModel>
  </diagram>
  <diagram id="oELFNrG83piSHTs4wW_l" name="K8S">
    <mxGraphModel dx="1181" dy="638" grid="1" gridSize="10" guides="1" tooltips="1" connect="1" arrows="1" fold="1" page="1" pageScale="1" pageWidth="827" pageHeight="1169" math="0" shadow="0">
      <root>
        <mxCell id="j9vWINe0RdKqNfeZ6DUA-0" />
        <mxCell id="j9vWINe0RdKqNfeZ6DUA-1" parent="j9vWINe0RdKqNfeZ6DUA-0" />
        <mxCell id="xXH8GbJWqZkMCbhQIU0o-16" value="资源非常充足的宿主机（假设无限大）" style="swimlane;align=center;fontSize=14;" vertex="1" parent="j9vWINe0RdKqNfeZ6DUA-1">
          <mxGeometry x="60" y="580" width="650" height="280" as="geometry" />
        </mxCell>
        <mxCell id="xXH8GbJWqZkMCbhQIU0o-28" value="devmgr进程" style="rounded=1;whiteSpace=wrap;html=1;align=center;verticalAlign=middle;fillColor=#d5e8d4;strokeColor=#82b366;" vertex="1" parent="xXH8GbJWqZkMCbhQIU0o-16">
          <mxGeometry x="200" y="30" width="120" height="60" as="geometry" />
        </mxCell>
        <mxCell id="xXH8GbJWqZkMCbhQIU0o-32" value="mc进程" style="rounded=1;whiteSpace=wrap;html=1;align=center;verticalAlign=middle;fillColor=#d5e8d4;strokeColor=#82b366;" vertex="1" parent="xXH8GbJWqZkMCbhQIU0o-16">
          <mxGeometry x="430" y="30" width="120" height="60" as="geometry" />
        </mxCell>
        <mxCell id="xXH8GbJWqZkMCbhQIU0o-31" value="netmp进程" style="rounded=1;whiteSpace=wrap;html=1;align=center;verticalAlign=middle;fillColor=#d5e8d4;strokeColor=#82b366;" vertex="1" parent="xXH8GbJWqZkMCbhQIU0o-16">
          <mxGeometry x="430" y="120" width="120" height="60" as="geometry" />
        </mxCell>
        <mxCell id="xXH8GbJWqZkMCbhQIU0o-30" value="relayserver进程" style="rounded=1;whiteSpace=wrap;html=1;align=center;verticalAlign=middle;fillColor=#d5e8d4;strokeColor=#82b366;" vertex="1" parent="xXH8GbJWqZkMCbhQIU0o-16">
          <mxGeometry x="200" y="120" width="120" height="60" as="geometry" />
        </mxCell>
        <mxCell id="xXH8GbJWqZkMCbhQIU0o-29" value="relaymc进程" style="rounded=1;whiteSpace=wrap;html=1;align=center;verticalAlign=middle;fillColor=#d5e8d4;strokeColor=#82b366;" vertex="1" parent="xXH8GbJWqZkMCbhQIU0o-16">
          <mxGeometry x="200" y="200" width="120" height="60" as="geometry" />
        </mxCell>
        <mxCell id="xXH8GbJWqZkMCbhQIU0o-41" value="通信使用宿主机ip" style="shape=note;whiteSpace=wrap;html=1;backgroundOutline=1;darkOpacity=0.05;align=center;verticalAlign=middle;fillColor=#fff2cc;strokeColor=#d6b656;" vertex="1" parent="xXH8GbJWqZkMCbhQIU0o-16">
          <mxGeometry x="10" y="25" width="130" height="95" as="geometry" />
        </mxCell>
        <mxCell id="xXH8GbJWqZkMCbhQIU0o-57" value="10000" style="rounded=0;whiteSpace=wrap;html=1;align=center;verticalAlign=middle;fillColor=#e3c800;fontColor=#000000;strokeColor=#B09500;" vertex="1" parent="xXH8GbJWqZkMCbhQIU0o-16">
          <mxGeometry x="620" y="40" width="30" height="40" as="geometry" />
        </mxCell>
        <mxCell id="xXH8GbJWqZkMCbhQIU0o-58" value="20000" style="rounded=0;whiteSpace=wrap;html=1;align=center;verticalAlign=middle;fillColor=#e3c800;fontColor=#000000;strokeColor=#B09500;" vertex="1" parent="xXH8GbJWqZkMCbhQIU0o-16">
          <mxGeometry x="620" y="80" width="30" height="40" as="geometry" />
        </mxCell>
        <mxCell id="xXH8GbJWqZkMCbhQIU0o-59" value="30000" style="rounded=0;whiteSpace=wrap;html=1;align=center;verticalAlign=middle;fillColor=#e3c800;fontColor=#000000;strokeColor=#B09500;" vertex="1" parent="xXH8GbJWqZkMCbhQIU0o-16">
          <mxGeometry x="620" y="120" width="30" height="40" as="geometry" />
        </mxCell>
        <mxCell id="xXH8GbJWqZkMCbhQIU0o-60" value="40000" style="rounded=0;whiteSpace=wrap;html=1;align=center;verticalAlign=middle;fillColor=#e3c800;fontColor=#000000;strokeColor=#B09500;" vertex="1" parent="xXH8GbJWqZkMCbhQIU0o-16">
          <mxGeometry x="620" y="160" width="30" height="40" as="geometry" />
        </mxCell>
        <mxCell id="xXH8GbJWqZkMCbhQIU0o-74" value="4010" style="rounded=0;whiteSpace=wrap;html=1;align=center;verticalAlign=middle;fillColor=#e3c800;fontColor=#000000;strokeColor=#B09500;" vertex="1" parent="xXH8GbJWqZkMCbhQIU0o-16">
          <mxGeometry x="620" y="200" width="30" height="40" as="geometry" />
        </mxCell>
        <mxCell id="xXH8GbJWqZkMCbhQIU0o-33" value="" style="shape=flexArrow;endArrow=classic;html=1;rounded=0;strokeColor=#000000;width=23;endSize=5.32;entryX=0.535;entryY=-0.002;entryDx=0;entryDy=0;entryPerimeter=0;" edge="1" parent="j9vWINe0RdKqNfeZ6DUA-1" target="xXH8GbJWqZkMCbhQIU0o-35">
          <mxGeometry width="50" height="50" relative="1" as="geometry">
            <mxPoint x="410" y="860" as="sourcePoint" />
            <mxPoint x="410" y="1020" as="targetPoint" />
            <Array as="points" />
          </mxGeometry>
        </mxCell>
        <mxCell id="xXH8GbJWqZkMCbhQIU0o-42" value="&lt;font style=&quot;font-size: 15px&quot;&gt;改进：容器化部署&lt;br&gt;&lt;br&gt;保持宿主机的干净环境&lt;br&gt;部署服务比较方便&lt;br&gt;&lt;br&gt;使用docker虚拟化技术&lt;/font&gt;" style="edgeLabel;html=1;align=center;verticalAlign=middle;resizable=0;points=[];fontSize=11;" vertex="1" connectable="0" parent="xXH8GbJWqZkMCbhQIU0o-33">
          <mxGeometry x="-0.2" y="-9" relative="1" as="geometry">
            <mxPoint x="9" y="4" as="offset" />
          </mxGeometry>
        </mxCell>
        <mxCell id="xXH8GbJWqZkMCbhQIU0o-35" value="资源非常充足的宿主机（假设无限大）" style="swimlane;align=center;fontSize=15;" vertex="1" parent="j9vWINe0RdKqNfeZ6DUA-1">
          <mxGeometry x="55" y="1020" width="665" height="430" as="geometry" />
        </mxCell>
        <mxCell id="xXH8GbJWqZkMCbhQIU0o-44" value="容器：devmgr-1&#xa;ip：172.17.1.1" style="swimlane;align=center;verticalAlign=middle;startSize=40;fillColor=#dae8fc;strokeColor=#6c8ebf;" vertex="1" parent="xXH8GbJWqZkMCbhQIU0o-35">
          <mxGeometry x="125" y="50" width="190" height="110" as="geometry" />
        </mxCell>
        <mxCell id="xXH8GbJWqZkMCbhQIU0o-36" value="devmgr进程" style="rounded=1;whiteSpace=wrap;html=1;align=center;verticalAlign=middle;fillColor=#d5e8d4;strokeColor=#82b366;" vertex="1" parent="xXH8GbJWqZkMCbhQIU0o-44">
          <mxGeometry x="15" y="50" width="110" height="40" as="geometry" />
        </mxCell>
        <mxCell id="xXH8GbJWqZkMCbhQIU0o-55" value="&lt;font style=&quot;font-size: 11px&quot;&gt;10000&lt;/font&gt;" style="rounded=0;whiteSpace=wrap;html=1;align=center;verticalAlign=middle;fillColor=#e3c800;fontColor=#000000;strokeColor=#B09500;" vertex="1" parent="xXH8GbJWqZkMCbhQIU0o-44">
          <mxGeometry x="160" y="40" width="30" height="40" as="geometry" />
        </mxCell>
        <mxCell id="xXH8GbJWqZkMCbhQIU0o-68" style="edgeStyle=orthogonalEdgeStyle;rounded=0;orthogonalLoop=1;jettySize=auto;html=1;exitX=0;exitY=0.25;exitDx=0;exitDy=0;entryX=1;entryY=0.5;entryDx=0;entryDy=0;fontSize=11;strokeColor=#000000;strokeWidth=2;" edge="1" parent="xXH8GbJWqZkMCbhQIU0o-35" source="xXH8GbJWqZkMCbhQIU0o-46" target="xXH8GbJWqZkMCbhQIU0o-55">
          <mxGeometry relative="1" as="geometry" />
        </mxCell>
        <mxCell id="xXH8GbJWqZkMCbhQIU0o-45" value="容器：mc-1&#xa;ip：172.17.1.2" style="swimlane;align=center;verticalAlign=middle;startSize=40;fillColor=#dae8fc;strokeColor=#6c8ebf;" vertex="1" parent="xXH8GbJWqZkMCbhQIU0o-35">
          <mxGeometry x="385" y="50" width="195" height="110" as="geometry" />
        </mxCell>
        <mxCell id="xXH8GbJWqZkMCbhQIU0o-46" value="mc进程" style="rounded=1;whiteSpace=wrap;html=1;align=center;verticalAlign=middle;fillColor=#d5e8d4;strokeColor=#82b366;" vertex="1" parent="xXH8GbJWqZkMCbhQIU0o-45">
          <mxGeometry x="10" y="50" width="110" height="40" as="geometry" />
        </mxCell>
        <mxCell id="xXH8GbJWqZkMCbhQIU0o-56" value="20000" style="rounded=0;whiteSpace=wrap;html=1;align=center;verticalAlign=middle;fillColor=#e3c800;fontColor=#000000;strokeColor=#B09500;" vertex="1" parent="xXH8GbJWqZkMCbhQIU0o-45">
          <mxGeometry x="165" y="40" width="30" height="40" as="geometry" />
        </mxCell>
        <mxCell id="xXH8GbJWqZkMCbhQIU0o-47" value="容器：relaymc-1&#xa;ip：172.17.1.3" style="swimlane;align=center;verticalAlign=middle;startSize=40;fillColor=#dae8fc;strokeColor=#6c8ebf;" vertex="1" parent="xXH8GbJWqZkMCbhQIU0o-35">
          <mxGeometry x="125" y="310" width="190" height="110" as="geometry" />
        </mxCell>
        <mxCell id="xXH8GbJWqZkMCbhQIU0o-48" value="relaymc进程" style="rounded=1;whiteSpace=wrap;html=1;align=center;verticalAlign=middle;fillColor=#d5e8d4;strokeColor=#82b366;" vertex="1" parent="xXH8GbJWqZkMCbhQIU0o-47">
          <mxGeometry x="15" y="50" width="110" height="40" as="geometry" />
        </mxCell>
        <mxCell id="xXH8GbJWqZkMCbhQIU0o-63" value="&lt;font style=&quot;font-size: 11px&quot;&gt;30000&lt;/font&gt;" style="rounded=0;whiteSpace=wrap;html=1;align=center;verticalAlign=middle;fillColor=#e3c800;fontColor=#000000;strokeColor=#B09500;" vertex="1" parent="xXH8GbJWqZkMCbhQIU0o-47">
          <mxGeometry x="160" y="35" width="30" height="40" as="geometry" />
        </mxCell>
        <mxCell id="xXH8GbJWqZkMCbhQIU0o-50" value="容器：relayserver-1&#xa;ip：172.17.1.4" style="swimlane;align=center;verticalAlign=middle;startSize=40;fillColor=#dae8fc;strokeColor=#6c8ebf;" vertex="1" parent="xXH8GbJWqZkMCbhQIU0o-35">
          <mxGeometry x="125" y="190" width="190" height="110" as="geometry" />
        </mxCell>
        <mxCell id="xXH8GbJWqZkMCbhQIU0o-51" value="relayserver进程" style="rounded=1;whiteSpace=wrap;html=1;align=center;verticalAlign=middle;fillColor=#d5e8d4;strokeColor=#82b366;" vertex="1" parent="xXH8GbJWqZkMCbhQIU0o-50">
          <mxGeometry x="10" y="50" width="120" height="40" as="geometry" />
        </mxCell>
        <mxCell id="xXH8GbJWqZkMCbhQIU0o-61" value="&lt;font style=&quot;font-size: 11px&quot;&gt;4010&lt;/font&gt;" style="rounded=0;whiteSpace=wrap;html=1;align=center;verticalAlign=middle;fillColor=#e3c800;fontColor=#000000;strokeColor=#B09500;" vertex="1" parent="xXH8GbJWqZkMCbhQIU0o-50">
          <mxGeometry x="160" y="40" width="30" height="40" as="geometry" />
        </mxCell>
        <mxCell id="xXH8GbJWqZkMCbhQIU0o-52" value="容器：netmp-1&#xa;ip：172.17.1.5" style="swimlane;align=center;verticalAlign=middle;startSize=40;fillColor=#dae8fc;strokeColor=#6c8ebf;" vertex="1" parent="xXH8GbJWqZkMCbhQIU0o-35">
          <mxGeometry x="385" y="180" width="195" height="110" as="geometry" />
        </mxCell>
        <mxCell id="xXH8GbJWqZkMCbhQIU0o-53" value="devmgr进程" style="rounded=1;whiteSpace=wrap;html=1;align=center;verticalAlign=middle;fillColor=#d5e8d4;strokeColor=#82b366;" vertex="1" parent="xXH8GbJWqZkMCbhQIU0o-52">
          <mxGeometry x="10" y="50" width="110" height="40" as="geometry" />
        </mxCell>
        <mxCell id="xXH8GbJWqZkMCbhQIU0o-62" value="&lt;font style=&quot;font-size: 11px&quot;&gt;40000&lt;/font&gt;" style="rounded=0;whiteSpace=wrap;html=1;align=center;verticalAlign=middle;fillColor=#e3c800;fontColor=#000000;strokeColor=#B09500;" vertex="1" parent="xXH8GbJWqZkMCbhQIU0o-52">
          <mxGeometry x="165" y="40" width="30" height="40" as="geometry" />
        </mxCell>
        <mxCell id="xXH8GbJWqZkMCbhQIU0o-54" value="服务间可内部通信&lt;br&gt;&lt;br&gt;与外部通信需要做端口映射" style="shape=note;whiteSpace=wrap;html=1;backgroundOutline=1;darkOpacity=0.05;align=center;verticalAlign=middle;fillColor=#fff2cc;strokeColor=#d6b656;" vertex="1" parent="xXH8GbJWqZkMCbhQIU0o-35">
          <mxGeometry x="10" y="40" width="90" height="130" as="geometry" />
        </mxCell>
        <mxCell id="xXH8GbJWqZkMCbhQIU0o-64" value="&lt;font style=&quot;font-size: 11px&quot;&gt;4010&lt;/font&gt;" style="rounded=0;whiteSpace=wrap;html=1;align=center;verticalAlign=middle;fillColor=#e3c800;fontColor=#000000;strokeColor=#B09500;" vertex="1" parent="xXH8GbJWqZkMCbhQIU0o-35">
          <mxGeometry x="635" y="30" width="30" height="40" as="geometry" />
        </mxCell>
        <mxCell id="xXH8GbJWqZkMCbhQIU0o-67" style="edgeStyle=orthogonalEdgeStyle;rounded=0;orthogonalLoop=1;jettySize=auto;html=1;exitX=0;exitY=0.5;exitDx=0;exitDy=0;fontSize=11;strokeColor=#A50040;fillColor=#d80073;strokeWidth=2;entryX=1;entryY=0.75;entryDx=0;entryDy=0;" edge="1" parent="xXH8GbJWqZkMCbhQIU0o-35" source="xXH8GbJWqZkMCbhQIU0o-65" target="xXH8GbJWqZkMCbhQIU0o-80">
          <mxGeometry relative="1" as="geometry">
            <mxPoint x="605" y="365" as="targetPoint" />
            <Array as="points">
              <mxPoint x="615" y="90" />
              <mxPoint x="615" y="375" />
            </Array>
          </mxGeometry>
        </mxCell>
        <mxCell id="xXH8GbJWqZkMCbhQIU0o-65" value="&lt;font style=&quot;font-size: 11px&quot;&gt;30000&lt;/font&gt;" style="rounded=0;whiteSpace=wrap;html=1;align=center;verticalAlign=middle;fillColor=#e3c800;fontColor=#000000;strokeColor=#B09500;" vertex="1" parent="xXH8GbJWqZkMCbhQIU0o-35">
          <mxGeometry x="635" y="70" width="30" height="40" as="geometry" />
        </mxCell>
        <mxCell id="xXH8GbJWqZkMCbhQIU0o-66" value="" style="endArrow=classic;startArrow=classic;html=1;rounded=0;fontSize=11;strokeColor=#A50040;entryX=0;entryY=0.5;entryDx=0;entryDy=0;exitX=1;exitY=0.5;exitDx=0;exitDy=0;fillColor=#d80073;strokeWidth=2;" edge="1" parent="xXH8GbJWqZkMCbhQIU0o-35" source="xXH8GbJWqZkMCbhQIU0o-61" target="xXH8GbJWqZkMCbhQIU0o-64">
          <mxGeometry width="50" height="50" relative="1" as="geometry">
            <mxPoint x="375" y="130" as="sourcePoint" />
            <mxPoint x="425" y="80" as="targetPoint" />
            <Array as="points">
              <mxPoint x="365" y="250" />
              <mxPoint x="365" y="30" />
              <mxPoint x="615" y="30" />
            </Array>
          </mxGeometry>
        </mxCell>
        <mxCell id="xXH8GbJWqZkMCbhQIU0o-69" style="edgeStyle=orthogonalEdgeStyle;rounded=0;orthogonalLoop=1;jettySize=auto;html=1;exitX=0;exitY=0.5;exitDx=0;exitDy=0;entryX=0.5;entryY=1;entryDx=0;entryDy=0;fontSize=11;strokeColor=#000000;strokeWidth=2;" edge="1" parent="xXH8GbJWqZkMCbhQIU0o-35" source="xXH8GbJWqZkMCbhQIU0o-51" target="xXH8GbJWqZkMCbhQIU0o-55">
          <mxGeometry relative="1" as="geometry">
            <Array as="points">
              <mxPoint x="115" y="260" />
              <mxPoint x="115" y="170" />
              <mxPoint x="300" y="170" />
            </Array>
          </mxGeometry>
        </mxCell>
        <mxCell id="xXH8GbJWqZkMCbhQIU0o-70" style="edgeStyle=orthogonalEdgeStyle;rounded=0;orthogonalLoop=1;jettySize=auto;html=1;exitX=0;exitY=0.5;exitDx=0;exitDy=0;entryX=0.5;entryY=1;entryDx=0;entryDy=0;fontSize=11;strokeColor=#000000;strokeWidth=2;" edge="1" parent="xXH8GbJWqZkMCbhQIU0o-35" source="xXH8GbJWqZkMCbhQIU0o-48" target="xXH8GbJWqZkMCbhQIU0o-55">
          <mxGeometry relative="1" as="geometry">
            <Array as="points">
              <mxPoint x="120" y="380" />
              <mxPoint x="120" y="180" />
              <mxPoint x="300" y="180" />
            </Array>
          </mxGeometry>
        </mxCell>
        <mxCell id="xXH8GbJWqZkMCbhQIU0o-71" style="edgeStyle=orthogonalEdgeStyle;rounded=0;orthogonalLoop=1;jettySize=auto;html=1;exitX=0;exitY=0.5;exitDx=0;exitDy=0;entryX=1;entryY=0.75;entryDx=0;entryDy=0;fontSize=11;strokeColor=#000000;strokeWidth=2;" edge="1" parent="xXH8GbJWqZkMCbhQIU0o-35" source="xXH8GbJWqZkMCbhQIU0o-53" target="xXH8GbJWqZkMCbhQIU0o-55">
          <mxGeometry relative="1" as="geometry" />
        </mxCell>
        <mxCell id="xXH8GbJWqZkMCbhQIU0o-78" value="容器：relaymc-2&#xa;ip：172.17.1.6" style="swimlane;align=center;verticalAlign=middle;startSize=40;fillColor=#dae8fc;strokeColor=#6c8ebf;" vertex="1" parent="xXH8GbJWqZkMCbhQIU0o-35">
          <mxGeometry x="385" y="310" width="190" height="110" as="geometry" />
        </mxCell>
        <mxCell id="xXH8GbJWqZkMCbhQIU0o-79" value="relaymc进程" style="rounded=1;whiteSpace=wrap;html=1;align=center;verticalAlign=middle;fillColor=#d5e8d4;strokeColor=#82b366;" vertex="1" parent="xXH8GbJWqZkMCbhQIU0o-78">
          <mxGeometry x="15" y="50" width="110" height="40" as="geometry" />
        </mxCell>
        <mxCell id="xXH8GbJWqZkMCbhQIU0o-80" value="&lt;font style=&quot;font-size: 11px&quot;&gt;30000&lt;/font&gt;" style="rounded=0;whiteSpace=wrap;html=1;align=center;verticalAlign=middle;fillColor=#e3c800;fontColor=#000000;strokeColor=#B09500;" vertex="1" parent="xXH8GbJWqZkMCbhQIU0o-78">
          <mxGeometry x="160" y="35" width="30" height="40" as="geometry" />
        </mxCell>
        <mxCell id="xXH8GbJWqZkMCbhQIU0o-83" style="edgeStyle=orthogonalEdgeStyle;rounded=0;orthogonalLoop=1;jettySize=auto;html=1;exitX=0.5;exitY=1;exitDx=0;exitDy=0;entryX=1;entryY=0.75;entryDx=0;entryDy=0;fontSize=11;strokeColor=#A50040;strokeWidth=2;fillColor=#d80073;" edge="1" parent="xXH8GbJWqZkMCbhQIU0o-35" source="xXH8GbJWqZkMCbhQIU0o-82" target="xXH8GbJWqZkMCbhQIU0o-63">
          <mxGeometry relative="1" as="geometry">
            <Array as="points">
              <mxPoint x="650" y="300" />
              <mxPoint x="345" y="300" />
              <mxPoint x="345" y="375" />
            </Array>
          </mxGeometry>
        </mxCell>
        <mxCell id="xXH8GbJWqZkMCbhQIU0o-82" value="&lt;font style=&quot;font-size: 11px&quot;&gt;30001&lt;/font&gt;" style="rounded=0;whiteSpace=wrap;html=1;align=center;verticalAlign=middle;fillColor=#e3c800;fontColor=#000000;strokeColor=#B09500;" vertex="1" parent="xXH8GbJWqZkMCbhQIU0o-35">
          <mxGeometry x="635" y="109" width="30" height="40" as="geometry" />
        </mxCell>
        <mxCell id="xXH8GbJWqZkMCbhQIU0o-43" value="&lt;font style=&quot;font-size: 15px&quot;&gt;如果对docker不理解，可以想象成VMware，作用就是启动一个虚拟机，采用的NAT的网络模式&lt;/font&gt;" style="shape=note;whiteSpace=wrap;html=1;backgroundOutline=1;darkOpacity=0.05;align=center;verticalAlign=middle;fillColor=#fff2cc;strokeColor=#d6b656;" vertex="1" parent="j9vWINe0RdKqNfeZ6DUA-1">
          <mxGeometry x="160" y="890" width="150" height="100" as="geometry" />
        </mxCell>
        <mxCell id="xXH8GbJWqZkMCbhQIU0o-72" value="" style="shape=flexArrow;endArrow=classic;html=1;rounded=0;strokeColor=#000000;width=23;endSize=5.32;entryX=0.535;entryY=-0.002;entryDx=0;entryDy=0;entryPerimeter=0;" edge="1" parent="j9vWINe0RdKqNfeZ6DUA-1">
          <mxGeometry width="50" height="50" relative="1" as="geometry">
            <mxPoint x="351" y="1450" as="sourcePoint" />
            <mxPoint x="350.7750000000001" y="1619.14" as="targetPoint" />
            <Array as="points" />
          </mxGeometry>
        </mxCell>
        <mxCell id="xXH8GbJWqZkMCbhQIU0o-73" value="&lt;font style=&quot;font-size: 15px&quot;&gt;改进：采用k8s容器&lt;br&gt;管理平台解决以上问题&lt;br&gt;&lt;/font&gt;" style="edgeLabel;html=1;align=center;verticalAlign=middle;resizable=0;points=[];fontSize=11;" vertex="1" connectable="0" parent="xXH8GbJWqZkMCbhQIU0o-72">
          <mxGeometry x="-0.2" y="-9" relative="1" as="geometry">
            <mxPoint x="9" y="4" as="offset" />
          </mxGeometry>
        </mxCell>
        <mxCell id="xXH8GbJWqZkMCbhQIU0o-75" value="&lt;span style=&quot;font-size: 15px&quot;&gt;1.使用deployment等控制器对服务的规格和数量进行控制，保持实际与期望相符&lt;br&gt;2.使用service对服务统一管理，解决端口与服务的绑定，解决容器ip不固定问题&lt;br&gt;3.使用pod来统一负责容器的规格&lt;br&gt;&lt;/span&gt;" style="shape=note;whiteSpace=wrap;html=1;backgroundOutline=1;darkOpacity=0.05;align=left;verticalAlign=middle;fillColor=#fff2cc;strokeColor=#d6b656;" vertex="1" parent="j9vWINe0RdKqNfeZ6DUA-1">
          <mxGeometry x="440" y="1460" width="280" height="120" as="geometry" />
        </mxCell>
        <mxCell id="xXH8GbJWqZkMCbhQIU0o-77" value="&lt;span style=&quot;font-size: 15px&quot;&gt;问题：&lt;br&gt;1.手动管理容器的创建与销毁对于集群管理是非常不可取的；&lt;br&gt;2. 随着容器的数量增加，网络的管理也是非常的复杂，包括ip和端口的管理&lt;br&gt;&lt;/span&gt;" style="shape=note;whiteSpace=wrap;html=1;backgroundOutline=1;darkOpacity=0.05;align=left;verticalAlign=middle;fillColor=#fff2cc;strokeColor=#d6b656;" vertex="1" parent="j9vWINe0RdKqNfeZ6DUA-1">
          <mxGeometry x="55" y="1460" width="215" height="120" as="geometry" />
        </mxCell>
        <mxCell id="xXH8GbJWqZkMCbhQIU0o-85" value="资源非常充足的宿主机（假设无限大）" style="swimlane;align=center;fontSize=15;" vertex="1" parent="j9vWINe0RdKqNfeZ6DUA-1">
          <mxGeometry x="50" y="1620" width="710" height="1090" as="geometry" />
        </mxCell>
        <mxCell id="xXH8GbJWqZkMCbhQIU0o-86" value="pod：devmgr-asde&#xa;ip：172.17.1.1" style="swimlane;align=center;verticalAlign=middle;startSize=40;fillColor=#1ba1e2;strokeColor=#006EAF;fontColor=#ffffff;" vertex="1" parent="xXH8GbJWqZkMCbhQIU0o-85">
          <mxGeometry x="170" y="56" width="215" height="130" as="geometry" />
        </mxCell>
        <mxCell id="xXH8GbJWqZkMCbhQIU0o-88" value="&lt;span style=&quot;font-size: 11px&quot;&gt;10000&lt;/span&gt;" style="rounded=0;whiteSpace=wrap;html=1;align=center;verticalAlign=middle;fillColor=#e3c800;fontColor=#000000;strokeColor=#B09500;" vertex="1" parent="xXH8GbJWqZkMCbhQIU0o-86">
          <mxGeometry x="185" y="40" width="30" height="40" as="geometry" />
        </mxCell>
        <mxCell id="xXH8GbJWqZkMCbhQIU0o-115" value="容器" style="swimlane;labelBackgroundColor=none;fontSize=11;align=center;verticalAlign=middle;fillColor=#dae8fc;strokeColor=#6c8ebf;" vertex="1" parent="xXH8GbJWqZkMCbhQIU0o-86">
          <mxGeometry x="10" y="50" width="150" height="70" as="geometry">
            <mxRectangle x="10" y="50" width="60" height="23" as="alternateBounds" />
          </mxGeometry>
        </mxCell>
        <mxCell id="xXH8GbJWqZkMCbhQIU0o-87" value="devmgr进程" style="rounded=1;whiteSpace=wrap;html=1;align=center;verticalAlign=middle;fillColor=#d5e8d4;strokeColor=#82b366;" vertex="1" parent="xXH8GbJWqZkMCbhQIU0o-115">
          <mxGeometry x="10" y="30" width="110" height="40" as="geometry" />
        </mxCell>
        <mxCell id="xXH8GbJWqZkMCbhQIU0o-102" value="服务间可内部通信&lt;br&gt;&lt;br&gt;与外部通信需要service实现" style="shape=note;whiteSpace=wrap;html=1;backgroundOutline=1;darkOpacity=0.05;align=center;verticalAlign=middle;fillColor=#fff2cc;strokeColor=#d6b656;" vertex="1" parent="xXH8GbJWqZkMCbhQIU0o-85">
          <mxGeometry x="10" y="30" width="90" height="130" as="geometry" />
        </mxCell>
        <mxCell id="xXH8GbJWqZkMCbhQIU0o-103" value="&lt;font style=&quot;font-size: 11px&quot;&gt;4010&lt;/font&gt;" style="rounded=0;whiteSpace=wrap;html=1;align=center;verticalAlign=middle;fillColor=#e3c800;fontColor=#000000;strokeColor=#B09500;" vertex="1" parent="xXH8GbJWqZkMCbhQIU0o-85">
          <mxGeometry x="680" y="110" width="30" height="40" as="geometry" />
        </mxCell>
        <mxCell id="xXH8GbJWqZkMCbhQIU0o-104" style="edgeStyle=orthogonalEdgeStyle;rounded=0;orthogonalLoop=1;jettySize=auto;html=1;exitX=0;exitY=0.5;exitDx=0;exitDy=0;fontSize=11;strokeColor=#A50040;fillColor=#d80073;strokeWidth=2;entryX=1;entryY=0.5;entryDx=0;entryDy=0;" edge="1" parent="xXH8GbJWqZkMCbhQIU0o-85" source="xXH8GbJWqZkMCbhQIU0o-105" target="xXH8GbJWqZkMCbhQIU0o-133">
          <mxGeometry relative="1" as="geometry">
            <mxPoint x="575" y="375" as="targetPoint" />
            <Array as="points">
              <mxPoint x="615" y="90" />
              <mxPoint x="615" y="428" />
            </Array>
          </mxGeometry>
        </mxCell>
        <mxCell id="xXH8GbJWqZkMCbhQIU0o-105" value="&lt;font style=&quot;font-size: 11px&quot;&gt;30000&lt;/font&gt;" style="rounded=0;whiteSpace=wrap;html=1;align=center;verticalAlign=middle;fillColor=#e3c800;fontColor=#000000;strokeColor=#B09500;" vertex="1" parent="xXH8GbJWqZkMCbhQIU0o-85">
          <mxGeometry x="680" y="70" width="30" height="40" as="geometry" />
        </mxCell>
        <mxCell id="xXH8GbJWqZkMCbhQIU0o-136" style="edgeStyle=orthogonalEdgeStyle;rounded=0;orthogonalLoop=1;jettySize=auto;html=1;exitX=0;exitY=0.5;exitDx=0;exitDy=0;entryX=1;entryY=0.5;entryDx=0;entryDy=0;fontSize=15;strokeColor=#000000;strokeWidth=2;" edge="1" parent="xXH8GbJWqZkMCbhQIU0o-85" source="xXH8GbJWqZkMCbhQIU0o-117" target="xXH8GbJWqZkMCbhQIU0o-88">
          <mxGeometry relative="1" as="geometry" />
        </mxCell>
        <mxCell id="xXH8GbJWqZkMCbhQIU0o-137" style="edgeStyle=orthogonalEdgeStyle;rounded=0;orthogonalLoop=1;jettySize=auto;html=1;exitX=0;exitY=0.5;exitDx=0;exitDy=0;entryX=1;entryY=0.75;entryDx=0;entryDy=0;fontSize=15;strokeColor=#000000;strokeWidth=2;" edge="1" parent="xXH8GbJWqZkMCbhQIU0o-85" source="xXH8GbJWqZkMCbhQIU0o-117" target="xXH8GbJWqZkMCbhQIU0o-122">
          <mxGeometry relative="1" as="geometry" />
        </mxCell>
        <mxCell id="xXH8GbJWqZkMCbhQIU0o-117" value="service：&lt;br&gt;name:devmgr&lt;br&gt;type:clusterip" style="rounded=1;whiteSpace=wrap;html=1;labelBackgroundColor=#FFB570;fontSize=11;align=left;verticalAlign=middle;fillColor=#f8cecc;strokeColor=#b85450;" vertex="1" parent="xXH8GbJWqZkMCbhQIU0o-85">
          <mxGeometry x="440" y="160" width="130" height="66" as="geometry" />
        </mxCell>
        <mxCell id="xXH8GbJWqZkMCbhQIU0o-118" value="&lt;span style=&quot;font-size: 11px&quot;&gt;10000&lt;/span&gt;" style="rounded=0;whiteSpace=wrap;html=1;align=center;verticalAlign=middle;fillColor=#e3c800;fontColor=#000000;strokeColor=#B09500;" vertex="1" parent="xXH8GbJWqZkMCbhQIU0o-85">
          <mxGeometry x="540" y="173" width="30" height="40" as="geometry" />
        </mxCell>
        <mxCell id="xXH8GbJWqZkMCbhQIU0o-119" value="" style="shape=curlyBracket;whiteSpace=wrap;html=1;rounded=1;labelBackgroundColor=#FFB570;fontSize=11;align=left;verticalAlign=middle;" vertex="1" parent="xXH8GbJWqZkMCbhQIU0o-85">
          <mxGeometry x="140" y="60" width="20" height="280" as="geometry" />
        </mxCell>
        <mxCell id="xXH8GbJWqZkMCbhQIU0o-121" value="pod：devmgr-aher&#xa;ip：172.17.1.3" style="swimlane;align=center;verticalAlign=middle;startSize=40;fillColor=#1ba1e2;strokeColor=#006EAF;fontColor=#ffffff;" vertex="1" parent="xXH8GbJWqZkMCbhQIU0o-85">
          <mxGeometry x="170" y="210" width="215" height="130" as="geometry" />
        </mxCell>
        <mxCell id="xXH8GbJWqZkMCbhQIU0o-122" value="&lt;span style=&quot;font-size: 11px&quot;&gt;10000&lt;/span&gt;" style="rounded=0;whiteSpace=wrap;html=1;align=center;verticalAlign=middle;fillColor=#e3c800;fontColor=#000000;strokeColor=#B09500;" vertex="1" parent="xXH8GbJWqZkMCbhQIU0o-121">
          <mxGeometry x="185" y="40" width="30" height="40" as="geometry" />
        </mxCell>
        <mxCell id="xXH8GbJWqZkMCbhQIU0o-123" value="容器" style="swimlane;labelBackgroundColor=none;fontSize=11;align=center;verticalAlign=middle;fillColor=#dae8fc;strokeColor=#6c8ebf;" vertex="1" parent="xXH8GbJWqZkMCbhQIU0o-121">
          <mxGeometry x="10" y="50" width="150" height="70" as="geometry">
            <mxRectangle x="10" y="50" width="60" height="23" as="alternateBounds" />
          </mxGeometry>
        </mxCell>
        <mxCell id="xXH8GbJWqZkMCbhQIU0o-124" value="devmgr进程" style="rounded=1;whiteSpace=wrap;html=1;align=center;verticalAlign=middle;fillColor=#d5e8d4;strokeColor=#82b366;" vertex="1" parent="xXH8GbJWqZkMCbhQIU0o-123">
          <mxGeometry x="10" y="30" width="110" height="40" as="geometry" />
        </mxCell>
        <mxCell id="xXH8GbJWqZkMCbhQIU0o-125" value="deployment&lt;br&gt;devmgr&lt;br&gt;副本数：2" style="rounded=1;whiteSpace=wrap;html=1;labelBackgroundColor=#FFFFFF;fontSize=15;align=center;verticalAlign=middle;" vertex="1" parent="xXH8GbJWqZkMCbhQIU0o-85">
          <mxGeometry x="40" y="173" width="100" height="60" as="geometry" />
        </mxCell>
        <mxCell id="xXH8GbJWqZkMCbhQIU0o-138" style="edgeStyle=orthogonalEdgeStyle;rounded=0;orthogonalLoop=1;jettySize=auto;html=1;exitX=1;exitY=0.25;exitDx=0;exitDy=0;entryX=1;entryY=0.5;entryDx=0;entryDy=0;fontSize=15;strokeColor=#000000;strokeWidth=2;" edge="1" parent="xXH8GbJWqZkMCbhQIU0o-85" source="xXH8GbJWqZkMCbhQIU0o-126" target="xXH8GbJWqZkMCbhQIU0o-118">
          <mxGeometry relative="1" as="geometry" />
        </mxCell>
        <mxCell id="xXH8GbJWqZkMCbhQIU0o-126" value="pod：relaymc-aher&#xa;ip：172.17.1.4" style="swimlane;align=center;verticalAlign=middle;startSize=40;fillColor=#1ba1e2;strokeColor=#006EAF;fontColor=#ffffff;" vertex="1" parent="xXH8GbJWqZkMCbhQIU0o-85">
          <mxGeometry x="171" y="360" width="215" height="130" as="geometry" />
        </mxCell>
        <mxCell id="xXH8GbJWqZkMCbhQIU0o-127" value="&lt;span style=&quot;font-size: 11px&quot;&gt;30000&lt;/span&gt;" style="rounded=0;whiteSpace=wrap;html=1;align=center;verticalAlign=middle;fillColor=#e3c800;fontColor=#000000;strokeColor=#B09500;" vertex="1" parent="xXH8GbJWqZkMCbhQIU0o-126">
          <mxGeometry x="185" y="40" width="30" height="40" as="geometry" />
        </mxCell>
        <mxCell id="xXH8GbJWqZkMCbhQIU0o-128" value="容器" style="swimlane;labelBackgroundColor=none;fontSize=11;align=center;verticalAlign=middle;fillColor=#dae8fc;strokeColor=#6c8ebf;" vertex="1" parent="xXH8GbJWqZkMCbhQIU0o-126">
          <mxGeometry x="10" y="50" width="150" height="70" as="geometry">
            <mxRectangle x="10" y="50" width="60" height="23" as="alternateBounds" />
          </mxGeometry>
        </mxCell>
        <mxCell id="xXH8GbJWqZkMCbhQIU0o-129" value="relaymc进程" style="rounded=1;whiteSpace=wrap;html=1;align=center;verticalAlign=middle;fillColor=#d5e8d4;strokeColor=#82b366;" vertex="1" parent="xXH8GbJWqZkMCbhQIU0o-128">
          <mxGeometry x="10" y="30" width="110" height="40" as="geometry" />
        </mxCell>
        <mxCell id="xXH8GbJWqZkMCbhQIU0o-130" value="" style="shape=curlyBracket;whiteSpace=wrap;html=1;rounded=1;labelBackgroundColor=#FFB570;fontSize=11;align=left;verticalAlign=middle;" vertex="1" parent="xXH8GbJWqZkMCbhQIU0o-85">
          <mxGeometry x="140" y="360" width="20" height="130" as="geometry" />
        </mxCell>
        <mxCell id="xXH8GbJWqZkMCbhQIU0o-131" value="deployment&lt;br&gt;relaymc&lt;br&gt;副本数：1" style="rounded=1;whiteSpace=wrap;html=1;labelBackgroundColor=#FFFFFF;fontSize=15;align=center;verticalAlign=middle;" vertex="1" parent="xXH8GbJWqZkMCbhQIU0o-85">
          <mxGeometry x="40" y="395" width="100" height="60" as="geometry" />
        </mxCell>
        <mxCell id="xXH8GbJWqZkMCbhQIU0o-135" style="edgeStyle=orthogonalEdgeStyle;rounded=0;orthogonalLoop=1;jettySize=auto;html=1;exitX=0;exitY=0.5;exitDx=0;exitDy=0;fontSize=15;strokeColor=#000000;strokeWidth=2;entryX=1;entryY=0.5;entryDx=0;entryDy=0;" edge="1" parent="xXH8GbJWqZkMCbhQIU0o-85" source="xXH8GbJWqZkMCbhQIU0o-132" target="xXH8GbJWqZkMCbhQIU0o-127">
          <mxGeometry relative="1" as="geometry">
            <mxPoint x="400" y="420" as="targetPoint" />
          </mxGeometry>
        </mxCell>
        <mxCell id="xXH8GbJWqZkMCbhQIU0o-132" value="service：&lt;br&gt;name:relaymc&lt;br&gt;type:NodePort" style="rounded=1;whiteSpace=wrap;html=1;labelBackgroundColor=#FFB570;fontSize=11;align=left;verticalAlign=middle;fillColor=#f8cecc;strokeColor=#b85450;" vertex="1" parent="xXH8GbJWqZkMCbhQIU0o-85">
          <mxGeometry x="440" y="400" width="130" height="61" as="geometry" />
        </mxCell>
        <mxCell id="xXH8GbJWqZkMCbhQIU0o-133" value="&lt;span style=&quot;font-size: 11px&quot;&gt;30000&lt;/span&gt;" style="rounded=0;whiteSpace=wrap;html=1;align=center;verticalAlign=middle;fillColor=#e3c800;fontColor=#000000;strokeColor=#B09500;" vertex="1" parent="xXH8GbJWqZkMCbhQIU0o-85">
          <mxGeometry x="540" y="408" width="30" height="40" as="geometry" />
        </mxCell>
        <mxCell id="xXH8GbJWqZkMCbhQIU0o-154" style="edgeStyle=orthogonalEdgeStyle;rounded=0;orthogonalLoop=1;jettySize=auto;html=1;exitX=1;exitY=0.25;exitDx=0;exitDy=0;fontSize=15;strokeColor=#000000;strokeWidth=2;" edge="1" parent="xXH8GbJWqZkMCbhQIU0o-85" source="xXH8GbJWqZkMCbhQIU0o-139" target="xXH8GbJWqZkMCbhQIU0o-117">
          <mxGeometry relative="1" as="geometry">
            <Array as="points">
              <mxPoint x="430" y="553" />
              <mxPoint x="430" y="270" />
              <mxPoint x="505" y="270" />
            </Array>
          </mxGeometry>
        </mxCell>
        <mxCell id="xXH8GbJWqZkMCbhQIU0o-139" value="pod：relayserver-wasdf&#xa;ip：172.17.1.6" style="swimlane;align=center;verticalAlign=middle;startSize=40;fillColor=#1ba1e2;strokeColor=#006EAF;fontColor=#ffffff;" vertex="1" parent="xXH8GbJWqZkMCbhQIU0o-85">
          <mxGeometry x="170" y="520" width="215" height="130" as="geometry" />
        </mxCell>
        <mxCell id="xXH8GbJWqZkMCbhQIU0o-140" value="&lt;span style=&quot;font-size: 11px&quot;&gt;4010&lt;/span&gt;" style="rounded=0;whiteSpace=wrap;html=1;align=center;verticalAlign=middle;fillColor=#e3c800;fontColor=#000000;strokeColor=#B09500;" vertex="1" parent="xXH8GbJWqZkMCbhQIU0o-139">
          <mxGeometry x="185" y="40" width="30" height="40" as="geometry" />
        </mxCell>
        <mxCell id="xXH8GbJWqZkMCbhQIU0o-141" value="容器" style="swimlane;labelBackgroundColor=none;fontSize=11;align=center;verticalAlign=middle;fillColor=#dae8fc;strokeColor=#6c8ebf;" vertex="1" parent="xXH8GbJWqZkMCbhQIU0o-139">
          <mxGeometry x="10" y="50" width="150" height="70" as="geometry">
            <mxRectangle x="10" y="50" width="60" height="23" as="alternateBounds" />
          </mxGeometry>
        </mxCell>
        <mxCell id="xXH8GbJWqZkMCbhQIU0o-142" value="relayserver进程" style="rounded=1;whiteSpace=wrap;html=1;align=center;verticalAlign=middle;fillColor=#d5e8d4;strokeColor=#82b366;" vertex="1" parent="xXH8GbJWqZkMCbhQIU0o-141">
          <mxGeometry x="10" y="30" width="110" height="40" as="geometry" />
        </mxCell>
        <mxCell id="xXH8GbJWqZkMCbhQIU0o-143" value="deployment&lt;br&gt;relayserver&lt;br&gt;副本数：2" style="rounded=1;whiteSpace=wrap;html=1;labelBackgroundColor=#FFFFFF;fontSize=15;align=center;verticalAlign=middle;" vertex="1" parent="xXH8GbJWqZkMCbhQIU0o-85">
          <mxGeometry x="40" y="620" width="100" height="60" as="geometry" />
        </mxCell>
        <mxCell id="xXH8GbJWqZkMCbhQIU0o-144" value="" style="shape=curlyBracket;whiteSpace=wrap;html=1;rounded=1;labelBackgroundColor=#FFB570;fontSize=11;align=left;verticalAlign=middle;" vertex="1" parent="xXH8GbJWqZkMCbhQIU0o-85">
          <mxGeometry x="140" y="520" width="20" height="270" as="geometry" />
        </mxCell>
        <mxCell id="xXH8GbJWqZkMCbhQIU0o-148" style="edgeStyle=orthogonalEdgeStyle;rounded=0;orthogonalLoop=1;jettySize=auto;html=1;exitX=0;exitY=0.5;exitDx=0;exitDy=0;entryX=1;entryY=0.75;entryDx=0;entryDy=0;fontSize=15;strokeColor=#000000;strokeWidth=2;" edge="1" parent="xXH8GbJWqZkMCbhQIU0o-85" source="xXH8GbJWqZkMCbhQIU0o-145" target="xXH8GbJWqZkMCbhQIU0o-140">
          <mxGeometry relative="1" as="geometry" />
        </mxCell>
        <mxCell id="xXH8GbJWqZkMCbhQIU0o-153" style="edgeStyle=orthogonalEdgeStyle;rounded=0;orthogonalLoop=1;jettySize=auto;html=1;exitX=0;exitY=0.5;exitDx=0;exitDy=0;entryX=1;entryY=0.5;entryDx=0;entryDy=0;fontSize=15;strokeColor=#000000;strokeWidth=2;" edge="1" parent="xXH8GbJWqZkMCbhQIU0o-85" source="xXH8GbJWqZkMCbhQIU0o-145" target="xXH8GbJWqZkMCbhQIU0o-149">
          <mxGeometry relative="1" as="geometry" />
        </mxCell>
        <mxCell id="xXH8GbJWqZkMCbhQIU0o-145" value="service：&lt;br&gt;name:relayserver&lt;br&gt;type:NodePort" style="rounded=1;whiteSpace=wrap;html=1;labelBackgroundColor=#FFB570;fontSize=11;align=left;verticalAlign=middle;fillColor=#f8cecc;strokeColor=#b85450;" vertex="1" parent="xXH8GbJWqZkMCbhQIU0o-85">
          <mxGeometry x="450" y="620" width="130" height="61" as="geometry" />
        </mxCell>
        <mxCell id="xXH8GbJWqZkMCbhQIU0o-146" value="&lt;span style=&quot;font-size: 11px&quot;&gt;4010&lt;/span&gt;" style="rounded=0;whiteSpace=wrap;html=1;align=center;verticalAlign=middle;fillColor=#e3c800;fontColor=#000000;strokeColor=#B09500;" vertex="1" parent="xXH8GbJWqZkMCbhQIU0o-85">
          <mxGeometry x="550" y="630.5" width="30" height="40" as="geometry" />
        </mxCell>
        <mxCell id="xXH8GbJWqZkMCbhQIU0o-147" style="edgeStyle=orthogonalEdgeStyle;rounded=0;orthogonalLoop=1;jettySize=auto;html=1;exitX=0;exitY=0.5;exitDx=0;exitDy=0;fontSize=11;strokeColor=#A50040;fillColor=#d80073;strokeWidth=2;entryX=1;entryY=0.5;entryDx=0;entryDy=0;" edge="1" parent="xXH8GbJWqZkMCbhQIU0o-85" source="xXH8GbJWqZkMCbhQIU0o-103" target="xXH8GbJWqZkMCbhQIU0o-146">
          <mxGeometry relative="1" as="geometry">
            <mxPoint x="580" y="438" as="targetPoint" />
            <Array as="points">
              <mxPoint x="650" y="130" />
              <mxPoint x="650" y="651" />
            </Array>
            <mxPoint x="640" y="100" as="sourcePoint" />
          </mxGeometry>
        </mxCell>
        <mxCell id="xXH8GbJWqZkMCbhQIU0o-155" style="edgeStyle=orthogonalEdgeStyle;rounded=0;orthogonalLoop=1;jettySize=auto;html=1;exitX=1;exitY=0.25;exitDx=0;exitDy=0;entryX=0.5;entryY=1;entryDx=0;entryDy=0;fontSize=15;strokeColor=#000000;strokeWidth=2;" edge="1" parent="xXH8GbJWqZkMCbhQIU0o-85" source="xXH8GbJWqZkMCbhQIU0o-149" target="xXH8GbJWqZkMCbhQIU0o-117">
          <mxGeometry relative="1" as="geometry">
            <Array as="points">
              <mxPoint x="430" y="693" />
              <mxPoint x="430" y="270" />
              <mxPoint x="505" y="270" />
            </Array>
          </mxGeometry>
        </mxCell>
        <mxCell id="xXH8GbJWqZkMCbhQIU0o-149" value="pod：relayserver-qascf&#xa;ip：172.17.1.7" style="swimlane;align=center;verticalAlign=middle;startSize=40;fillColor=#1ba1e2;strokeColor=#006EAF;fontColor=#ffffff;" vertex="1" parent="xXH8GbJWqZkMCbhQIU0o-85">
          <mxGeometry x="170" y="660" width="215" height="130" as="geometry" />
        </mxCell>
        <mxCell id="xXH8GbJWqZkMCbhQIU0o-150" value="&lt;span style=&quot;font-size: 11px&quot;&gt;4010&lt;/span&gt;" style="rounded=0;whiteSpace=wrap;html=1;align=center;verticalAlign=middle;fillColor=#e3c800;fontColor=#000000;strokeColor=#B09500;" vertex="1" parent="xXH8GbJWqZkMCbhQIU0o-149">
          <mxGeometry x="185" y="40" width="30" height="40" as="geometry" />
        </mxCell>
        <mxCell id="xXH8GbJWqZkMCbhQIU0o-151" value="容器" style="swimlane;labelBackgroundColor=none;fontSize=11;align=center;verticalAlign=middle;fillColor=#dae8fc;strokeColor=#6c8ebf;" vertex="1" parent="xXH8GbJWqZkMCbhQIU0o-149">
          <mxGeometry x="10" y="50" width="150" height="70" as="geometry">
            <mxRectangle x="10" y="50" width="60" height="23" as="alternateBounds" />
          </mxGeometry>
        </mxCell>
        <mxCell id="xXH8GbJWqZkMCbhQIU0o-152" value="relayserver进程" style="rounded=1;whiteSpace=wrap;html=1;align=center;verticalAlign=middle;fillColor=#d5e8d4;strokeColor=#82b366;" vertex="1" parent="xXH8GbJWqZkMCbhQIU0o-151">
          <mxGeometry x="10" y="30" width="110" height="40" as="geometry" />
        </mxCell>
        <mxCell id="xXH8GbJWqZkMCbhQIU0o-168" style="edgeStyle=orthogonalEdgeStyle;rounded=0;orthogonalLoop=1;jettySize=auto;html=1;exitX=1;exitY=0.25;exitDx=0;exitDy=0;entryX=0.5;entryY=1;entryDx=0;entryDy=0;fontSize=15;strokeColor=#000000;strokeWidth=2;" edge="1" parent="xXH8GbJWqZkMCbhQIU0o-85" source="xXH8GbJWqZkMCbhQIU0o-156" target="xXH8GbJWqZkMCbhQIU0o-117">
          <mxGeometry relative="1" as="geometry">
            <Array as="points">
              <mxPoint x="430" y="843" />
              <mxPoint x="430" y="270" />
              <mxPoint x="505" y="270" />
            </Array>
          </mxGeometry>
        </mxCell>
        <mxCell id="xXH8GbJWqZkMCbhQIU0o-156" value="pod：mc-qascf&#xa;ip：172.17.1.9" style="swimlane;align=center;verticalAlign=middle;startSize=40;fillColor=#1ba1e2;strokeColor=#006EAF;fontColor=#ffffff;" vertex="1" parent="xXH8GbJWqZkMCbhQIU0o-85">
          <mxGeometry x="170" y="810" width="215" height="130" as="geometry" />
        </mxCell>
        <mxCell id="xXH8GbJWqZkMCbhQIU0o-157" value="&lt;span style=&quot;font-size: 11px&quot;&gt;20000&lt;/span&gt;" style="rounded=0;whiteSpace=wrap;html=1;align=center;verticalAlign=middle;fillColor=#e3c800;fontColor=#000000;strokeColor=#B09500;" vertex="1" parent="xXH8GbJWqZkMCbhQIU0o-156">
          <mxGeometry x="185" y="40" width="30" height="40" as="geometry" />
        </mxCell>
        <mxCell id="xXH8GbJWqZkMCbhQIU0o-158" value="容器" style="swimlane;labelBackgroundColor=none;fontSize=11;align=center;verticalAlign=middle;fillColor=#dae8fc;strokeColor=#6c8ebf;" vertex="1" parent="xXH8GbJWqZkMCbhQIU0o-156">
          <mxGeometry x="10" y="50" width="150" height="70" as="geometry">
            <mxRectangle x="10" y="50" width="60" height="23" as="alternateBounds" />
          </mxGeometry>
        </mxCell>
        <mxCell id="xXH8GbJWqZkMCbhQIU0o-159" value="mc进程" style="rounded=1;whiteSpace=wrap;html=1;align=center;verticalAlign=middle;fillColor=#d5e8d4;strokeColor=#82b366;" vertex="1" parent="xXH8GbJWqZkMCbhQIU0o-158">
          <mxGeometry x="10" y="30" width="110" height="40" as="geometry" />
        </mxCell>
        <mxCell id="xXH8GbJWqZkMCbhQIU0o-160" value="deployment&lt;br&gt;mc&lt;br&gt;副本数：1" style="rounded=1;whiteSpace=wrap;html=1;labelBackgroundColor=#FFFFFF;fontSize=15;align=center;verticalAlign=middle;" vertex="1" parent="xXH8GbJWqZkMCbhQIU0o-85">
          <mxGeometry x="40" y="845" width="100" height="60" as="geometry" />
        </mxCell>
        <mxCell id="xXH8GbJWqZkMCbhQIU0o-161" value="" style="shape=curlyBracket;whiteSpace=wrap;html=1;rounded=1;labelBackgroundColor=#FFB570;fontSize=11;align=left;verticalAlign=middle;" vertex="1" parent="xXH8GbJWqZkMCbhQIU0o-85">
          <mxGeometry x="140" y="810" width="20" height="130" as="geometry" />
        </mxCell>
        <mxCell id="xXH8GbJWqZkMCbhQIU0o-162" value="deployment&lt;br&gt;netmp&lt;br&gt;副本数：1" style="rounded=1;whiteSpace=wrap;html=1;labelBackgroundColor=#FFFFFF;fontSize=15;align=center;verticalAlign=middle;" vertex="1" parent="xXH8GbJWqZkMCbhQIU0o-85">
          <mxGeometry x="40" y="985" width="100" height="60" as="geometry" />
        </mxCell>
        <mxCell id="xXH8GbJWqZkMCbhQIU0o-163" value="" style="shape=curlyBracket;whiteSpace=wrap;html=1;rounded=1;labelBackgroundColor=#FFB570;fontSize=11;align=left;verticalAlign=middle;" vertex="1" parent="xXH8GbJWqZkMCbhQIU0o-85">
          <mxGeometry x="140" y="950" width="20" height="130" as="geometry" />
        </mxCell>
        <mxCell id="xXH8GbJWqZkMCbhQIU0o-169" style="edgeStyle=orthogonalEdgeStyle;rounded=0;orthogonalLoop=1;jettySize=auto;html=1;exitX=1;exitY=0.25;exitDx=0;exitDy=0;entryX=0.5;entryY=1;entryDx=0;entryDy=0;fontSize=15;strokeColor=#000000;strokeWidth=2;" edge="1" parent="xXH8GbJWqZkMCbhQIU0o-85" source="xXH8GbJWqZkMCbhQIU0o-164" target="xXH8GbJWqZkMCbhQIU0o-117">
          <mxGeometry relative="1" as="geometry">
            <Array as="points">
              <mxPoint x="430" y="983" />
              <mxPoint x="430" y="270" />
              <mxPoint x="505" y="270" />
            </Array>
          </mxGeometry>
        </mxCell>
        <mxCell id="xXH8GbJWqZkMCbhQIU0o-164" value="pod：netmp-qascf&#xa;ip：172.17.1.11" style="swimlane;align=center;verticalAlign=middle;startSize=40;fillColor=#1ba1e2;strokeColor=#006EAF;fontColor=#ffffff;" vertex="1" parent="xXH8GbJWqZkMCbhQIU0o-85">
          <mxGeometry x="170" y="950" width="215" height="130" as="geometry" />
        </mxCell>
        <mxCell id="xXH8GbJWqZkMCbhQIU0o-165" value="&lt;span style=&quot;font-size: 11px&quot;&gt;40000&lt;/span&gt;" style="rounded=0;whiteSpace=wrap;html=1;align=center;verticalAlign=middle;fillColor=#e3c800;fontColor=#000000;strokeColor=#B09500;" vertex="1" parent="xXH8GbJWqZkMCbhQIU0o-164">
          <mxGeometry x="185" y="40" width="30" height="40" as="geometry" />
        </mxCell>
        <mxCell id="xXH8GbJWqZkMCbhQIU0o-166" value="容器" style="swimlane;labelBackgroundColor=none;fontSize=11;align=center;verticalAlign=middle;fillColor=#dae8fc;strokeColor=#6c8ebf;" vertex="1" parent="xXH8GbJWqZkMCbhQIU0o-164">
          <mxGeometry x="10" y="50" width="150" height="70" as="geometry">
            <mxRectangle x="10" y="50" width="60" height="23" as="alternateBounds" />
          </mxGeometry>
        </mxCell>
        <mxCell id="xXH8GbJWqZkMCbhQIU0o-167" value="netmp进程" style="rounded=1;whiteSpace=wrap;html=1;align=center;verticalAlign=middle;fillColor=#d5e8d4;strokeColor=#82b366;" vertex="1" parent="xXH8GbJWqZkMCbhQIU0o-166">
          <mxGeometry x="10" y="30" width="110" height="40" as="geometry" />
        </mxCell>
      </root>
    </mxGraphModel>
  </diagram>
  <diagram id="FXBYYU9vrMCe3K9esWxH" name="Page-3">
    <mxGraphModel dx="1181" dy="-1700" grid="1" gridSize="10" guides="1" tooltips="1" connect="1" arrows="1" fold="1" page="1" pageScale="1" pageWidth="827" pageHeight="1169" math="0" shadow="0">
      <root>
        <mxCell id="dLXsunss4Cly1oT7zrY9-0" />
        <mxCell id="dLXsunss4Cly1oT7zrY9-1" parent="dLXsunss4Cly1oT7zrY9-0" />
        <mxCell id="dLXsunss4Cly1oT7zrY9-2" value="k8s集群：VIP=10.10.15.66" style="swimlane;align=center;fontSize=15;labelBackgroundColor=none;" vertex="1" parent="dLXsunss4Cly1oT7zrY9-1">
          <mxGeometry x="20" y="2820" width="1120" height="970" as="geometry" />
        </mxCell>
        <mxCell id="dLXsunss4Cly1oT7zrY9-3" style="edgeStyle=orthogonalEdgeStyle;rounded=0;orthogonalLoop=1;jettySize=auto;html=1;exitX=1;exitY=0.5;exitDx=0;exitDy=0;entryX=0;entryY=0.5;entryDx=0;entryDy=0;fontSize=15;strokeColor=#A50040;strokeWidth=2;fillColor=#d80073;" edge="1" parent="dLXsunss4Cly1oT7zrY9-2" source="dLXsunss4Cly1oT7zrY9-4" target="dLXsunss4Cly1oT7zrY9-16">
          <mxGeometry relative="1" as="geometry" />
        </mxCell>
        <mxCell id="dLXsunss4Cly1oT7zrY9-4" value="&lt;font style=&quot;font-size: 11px&quot;&gt;30410&lt;/font&gt;" style="rounded=0;whiteSpace=wrap;html=1;align=center;verticalAlign=middle;fillColor=#e3c800;fontColor=#000000;strokeColor=#B09500;" vertex="1" parent="dLXsunss4Cly1oT7zrY9-2">
          <mxGeometry x="450" y="20" width="40" height="40" as="geometry" />
        </mxCell>
        <mxCell id="dLXsunss4Cly1oT7zrY9-5" style="edgeStyle=orthogonalEdgeStyle;rounded=0;orthogonalLoop=1;jettySize=auto;html=1;exitX=0.5;exitY=1;exitDx=0;exitDy=0;entryX=0;entryY=0.25;entryDx=0;entryDy=0;fontSize=15;strokeColor=#A50040;strokeWidth=2;fillColor=#d80073;" edge="1" parent="dLXsunss4Cly1oT7zrY9-2" source="dLXsunss4Cly1oT7zrY9-6" target="dLXsunss4Cly1oT7zrY9-13">
          <mxGeometry relative="1" as="geometry" />
        </mxCell>
        <mxCell id="dLXsunss4Cly1oT7zrY9-6" value="&lt;font style=&quot;font-size: 11px&quot;&gt;30000&lt;/font&gt;" style="rounded=0;whiteSpace=wrap;html=1;align=center;verticalAlign=middle;fillColor=#e3c800;fontColor=#000000;strokeColor=#B09500;" vertex="1" parent="dLXsunss4Cly1oT7zrY9-2">
          <mxGeometry x="390" y="20" width="40" height="40" as="geometry" />
        </mxCell>
        <mxCell id="dLXsunss4Cly1oT7zrY9-7" style="edgeStyle=orthogonalEdgeStyle;rounded=0;orthogonalLoop=1;jettySize=auto;html=1;exitX=0.5;exitY=1;exitDx=0;exitDy=0;entryX=0;entryY=0.25;entryDx=0;entryDy=0;fontSize=15;strokeColor=#3700CC;strokeWidth=2;fillColor=#6a00ff;" edge="1" parent="dLXsunss4Cly1oT7zrY9-2" source="dLXsunss4Cly1oT7zrY9-8" target="dLXsunss4Cly1oT7zrY9-33">
          <mxGeometry relative="1" as="geometry">
            <Array as="points">
              <mxPoint x="285" y="170" />
              <mxPoint x="400" y="170" />
              <mxPoint x="400" y="403" />
            </Array>
          </mxGeometry>
        </mxCell>
        <mxCell id="dLXsunss4Cly1oT7zrY9-8" value="service：&lt;br&gt;name:devmgr&lt;br&gt;type:clusterip" style="rounded=1;whiteSpace=wrap;html=1;labelBackgroundColor=none;fontSize=11;align=left;verticalAlign=middle;fillColor=#f8cecc;strokeColor=#b85450;" vertex="1" parent="dLXsunss4Cly1oT7zrY9-2">
          <mxGeometry x="220" y="83" width="130" height="66" as="geometry" />
        </mxCell>
        <mxCell id="dLXsunss4Cly1oT7zrY9-9" value="&lt;span style=&quot;font-size: 11px&quot;&gt;10000&lt;/span&gt;" style="rounded=0;whiteSpace=wrap;html=1;align=center;verticalAlign=middle;fillColor=#e3c800;fontColor=#000000;strokeColor=#B09500;" vertex="1" parent="dLXsunss4Cly1oT7zrY9-2">
          <mxGeometry x="320" y="96" width="30" height="40" as="geometry" />
        </mxCell>
        <mxCell id="dLXsunss4Cly1oT7zrY9-10" value="deployment&lt;br&gt;devmgr&lt;br&gt;副本数：2" style="rounded=1;whiteSpace=wrap;html=1;labelBackgroundColor=#FFFFFF;fontSize=15;align=center;verticalAlign=middle;" vertex="1" parent="dLXsunss4Cly1oT7zrY9-2">
          <mxGeometry y="310" width="90" height="60" as="geometry" />
        </mxCell>
        <mxCell id="dLXsunss4Cly1oT7zrY9-11" value="deployment&lt;br&gt;relaymc&lt;br&gt;副本数：1" style="rounded=1;whiteSpace=wrap;html=1;labelBackgroundColor=#FFFFFF;fontSize=15;align=center;verticalAlign=middle;" vertex="1" parent="dLXsunss4Cly1oT7zrY9-2">
          <mxGeometry y="380" width="90" height="60" as="geometry" />
        </mxCell>
        <mxCell id="dLXsunss4Cly1oT7zrY9-12" style="edgeStyle=orthogonalEdgeStyle;rounded=0;orthogonalLoop=1;jettySize=auto;html=1;exitX=0.25;exitY=1;exitDx=0;exitDy=0;entryX=1;entryY=0.25;entryDx=0;entryDy=0;fontSize=15;strokeColor=#006EAF;strokeWidth=2;fillColor=#1ba1e2;" edge="1" parent="dLXsunss4Cly1oT7zrY9-2" source="dLXsunss4Cly1oT7zrY9-13" target="dLXsunss4Cly1oT7zrY9-24">
          <mxGeometry relative="1" as="geometry">
            <Array as="points">
              <mxPoint x="523" y="150" />
              <mxPoint x="430" y="150" />
              <mxPoint x="430" y="393" />
            </Array>
          </mxGeometry>
        </mxCell>
        <mxCell id="dLXsunss4Cly1oT7zrY9-13" value="service：&lt;br&gt;name:relaymc&lt;br&gt;type:NodePort" style="rounded=1;whiteSpace=wrap;html=1;labelBackgroundColor=none;fontSize=11;align=left;verticalAlign=middle;fillColor=#f8cecc;strokeColor=#b85450;" vertex="1" parent="dLXsunss4Cly1oT7zrY9-2">
          <mxGeometry x="490" y="85.5" width="130" height="61" as="geometry" />
        </mxCell>
        <mxCell id="dLXsunss4Cly1oT7zrY9-14" value="&lt;span style=&quot;font-size: 11px&quot;&gt;30000&lt;/span&gt;" style="rounded=0;whiteSpace=wrap;html=1;align=center;verticalAlign=middle;fillColor=#e3c800;fontColor=#000000;strokeColor=#B09500;" vertex="1" parent="dLXsunss4Cly1oT7zrY9-2">
          <mxGeometry x="590" y="98.5" width="30" height="40" as="geometry" />
        </mxCell>
        <mxCell id="dLXsunss4Cly1oT7zrY9-15" value="deployment&lt;br&gt;relayserver&lt;br&gt;副本数：3" style="rounded=1;whiteSpace=wrap;html=1;labelBackgroundColor=#FFFFFF;fontSize=15;align=center;verticalAlign=middle;" vertex="1" parent="dLXsunss4Cly1oT7zrY9-2">
          <mxGeometry y="460" width="90" height="60" as="geometry" />
        </mxCell>
        <mxCell id="26rxJBJh39qEEJQsGTjf-5" style="edgeStyle=orthogonalEdgeStyle;rounded=0;orthogonalLoop=1;jettySize=auto;html=1;exitX=0.5;exitY=1;exitDx=0;exitDy=0;entryX=1;entryY=0.75;entryDx=0;entryDy=0;fontSize=15;strokeColor=#3700CC;strokeWidth=2;fillColor=#6a00ff;" edge="1" parent="dLXsunss4Cly1oT7zrY9-2" source="dLXsunss4Cly1oT7zrY9-16" target="26rxJBJh39qEEJQsGTjf-2">
          <mxGeometry relative="1" as="geometry">
            <Array as="points">
              <mxPoint x="825" y="170" />
              <mxPoint x="740" y="170" />
              <mxPoint x="740" y="590" />
            </Array>
          </mxGeometry>
        </mxCell>
        <mxCell id="dLXsunss4Cly1oT7zrY9-16" value="service：&lt;br&gt;name:relayserver&lt;br&gt;type:NodePort" style="rounded=1;whiteSpace=wrap;html=1;labelBackgroundColor=none;fontSize=11;align=left;verticalAlign=middle;fillColor=#f8cecc;strokeColor=#b85450;" vertex="1" parent="dLXsunss4Cly1oT7zrY9-2">
          <mxGeometry x="760" y="83" width="130" height="61" as="geometry" />
        </mxCell>
        <mxCell id="dLXsunss4Cly1oT7zrY9-17" value="&lt;span style=&quot;font-size: 11px&quot;&gt;30410&lt;/span&gt;" style="rounded=0;whiteSpace=wrap;html=1;align=center;verticalAlign=middle;fillColor=#e3c800;fontColor=#000000;strokeColor=#B09500;" vertex="1" parent="dLXsunss4Cly1oT7zrY9-2">
          <mxGeometry x="860" y="96" width="30" height="40" as="geometry" />
        </mxCell>
        <mxCell id="dLXsunss4Cly1oT7zrY9-18" value="deployment&lt;br&gt;netmp&lt;br&gt;副本数：1" style="rounded=1;whiteSpace=wrap;html=1;labelBackgroundColor=#FFFFFF;fontSize=15;align=center;verticalAlign=middle;" vertex="1" parent="dLXsunss4Cly1oT7zrY9-2">
          <mxGeometry y="144" width="90" height="66" as="geometry" />
        </mxCell>
        <mxCell id="dLXsunss4Cly1oT7zrY9-19" value="node1：10.10.15.69" style="swimlane;labelBackgroundColor=none;fontSize=15;align=center;verticalAlign=middle;fillColor=#60a917;fontColor=#ffffff;strokeColor=#2D7600;" vertex="1" parent="dLXsunss4Cly1oT7zrY9-2">
          <mxGeometry x="100" y="180" width="290" height="490" as="geometry" />
        </mxCell>
        <mxCell id="dLXsunss4Cly1oT7zrY9-20" value="pod：devmgr-asde&#xa;ip：172.17.1.1" style="swimlane;align=center;verticalAlign=middle;startSize=40;fillColor=#1ba1e2;strokeColor=#006EAF;fontColor=#ffffff;" vertex="1" parent="dLXsunss4Cly1oT7zrY9-19">
          <mxGeometry x="40" y="30" width="215" height="130" as="geometry" />
        </mxCell>
        <mxCell id="dLXsunss4Cly1oT7zrY9-21" value="&lt;span style=&quot;font-size: 11px&quot;&gt;10000&lt;/span&gt;" style="rounded=0;whiteSpace=wrap;html=1;align=center;verticalAlign=middle;fillColor=#e3c800;fontColor=#000000;strokeColor=#B09500;" vertex="1" parent="dLXsunss4Cly1oT7zrY9-20">
          <mxGeometry x="185" y="40" width="30" height="40" as="geometry" />
        </mxCell>
        <mxCell id="dLXsunss4Cly1oT7zrY9-22" value="容器" style="swimlane;labelBackgroundColor=none;fontSize=11;align=center;verticalAlign=middle;fillColor=#dae8fc;strokeColor=#6c8ebf;" vertex="1" parent="dLXsunss4Cly1oT7zrY9-20">
          <mxGeometry x="10" y="50" width="150" height="70" as="geometry">
            <mxRectangle x="10" y="50" width="60" height="23" as="alternateBounds" />
          </mxGeometry>
        </mxCell>
        <mxCell id="dLXsunss4Cly1oT7zrY9-23" value="devmgr进程" style="rounded=1;whiteSpace=wrap;html=1;align=center;verticalAlign=middle;fillColor=#d5e8d4;strokeColor=#82b366;" vertex="1" parent="dLXsunss4Cly1oT7zrY9-22">
          <mxGeometry x="10" y="30" width="110" height="40" as="geometry" />
        </mxCell>
        <mxCell id="dLXsunss4Cly1oT7zrY9-24" value="pod：relaymc-aher&#xa;ip：172.17.1.4" style="swimlane;align=center;verticalAlign=middle;startSize=40;fillColor=#1ba1e2;strokeColor=#006EAF;fontColor=#ffffff;" vertex="1" parent="dLXsunss4Cly1oT7zrY9-19">
          <mxGeometry x="40" y="180" width="215" height="130" as="geometry" />
        </mxCell>
        <mxCell id="dLXsunss4Cly1oT7zrY9-25" value="&lt;span style=&quot;font-size: 11px&quot;&gt;30000&lt;/span&gt;" style="rounded=0;whiteSpace=wrap;html=1;align=center;verticalAlign=middle;fillColor=#e3c800;fontColor=#000000;strokeColor=#B09500;" vertex="1" parent="dLXsunss4Cly1oT7zrY9-24">
          <mxGeometry x="185" y="40" width="30" height="40" as="geometry" />
        </mxCell>
        <mxCell id="dLXsunss4Cly1oT7zrY9-26" value="容器" style="swimlane;labelBackgroundColor=none;fontSize=11;align=center;verticalAlign=middle;fillColor=#dae8fc;strokeColor=#6c8ebf;" vertex="1" parent="dLXsunss4Cly1oT7zrY9-24">
          <mxGeometry x="10" y="50" width="150" height="70" as="geometry">
            <mxRectangle x="10" y="50" width="60" height="23" as="alternateBounds" />
          </mxGeometry>
        </mxCell>
        <mxCell id="dLXsunss4Cly1oT7zrY9-27" value="relaymc进程" style="rounded=1;whiteSpace=wrap;html=1;align=center;verticalAlign=middle;fillColor=#d5e8d4;strokeColor=#82b366;" vertex="1" parent="dLXsunss4Cly1oT7zrY9-26">
          <mxGeometry x="10" y="30" width="110" height="40" as="geometry" />
        </mxCell>
        <mxCell id="dLXsunss4Cly1oT7zrY9-28" value="pod：mc-qascf&#xa;ip：172.17.1.9" style="swimlane;align=center;verticalAlign=middle;startSize=40;fillColor=#1ba1e2;strokeColor=#006EAF;fontColor=#ffffff;" vertex="1" parent="dLXsunss4Cly1oT7zrY9-19">
          <mxGeometry x="40" y="330" width="215" height="130" as="geometry" />
        </mxCell>
        <mxCell id="dLXsunss4Cly1oT7zrY9-29" value="&lt;span style=&quot;font-size: 11px&quot;&gt;20000&lt;/span&gt;" style="rounded=0;whiteSpace=wrap;html=1;align=center;verticalAlign=middle;fillColor=#e3c800;fontColor=#000000;strokeColor=#B09500;" vertex="1" parent="dLXsunss4Cly1oT7zrY9-28">
          <mxGeometry x="185" y="40" width="30" height="40" as="geometry" />
        </mxCell>
        <mxCell id="dLXsunss4Cly1oT7zrY9-30" value="容器" style="swimlane;labelBackgroundColor=none;fontSize=11;align=center;verticalAlign=middle;fillColor=#dae8fc;strokeColor=#6c8ebf;" vertex="1" parent="dLXsunss4Cly1oT7zrY9-28">
          <mxGeometry x="10" y="50" width="150" height="70" as="geometry">
            <mxRectangle x="10" y="50" width="60" height="23" as="alternateBounds" />
          </mxGeometry>
        </mxCell>
        <mxCell id="dLXsunss4Cly1oT7zrY9-31" value="mc进程" style="rounded=1;whiteSpace=wrap;html=1;align=center;verticalAlign=middle;fillColor=#d5e8d4;strokeColor=#82b366;" vertex="1" parent="dLXsunss4Cly1oT7zrY9-30">
          <mxGeometry x="10" y="30" width="110" height="40" as="geometry" />
        </mxCell>
        <mxCell id="dLXsunss4Cly1oT7zrY9-32" value="node2：10.10.15.65" style="swimlane;labelBackgroundColor=none;fontSize=15;align=center;verticalAlign=middle;fillColor=#60a917;fontColor=#ffffff;strokeColor=#2D7600;" vertex="1" parent="dLXsunss4Cly1oT7zrY9-2">
          <mxGeometry x="420" y="180" width="280" height="490" as="geometry" />
        </mxCell>
        <mxCell id="dLXsunss4Cly1oT7zrY9-33" value="pod：devmgr-aher&#xa;ip：172.17.2.3" style="swimlane;align=center;verticalAlign=middle;startSize=40;fillColor=#1ba1e2;strokeColor=#006EAF;fontColor=#ffffff;" vertex="1" parent="dLXsunss4Cly1oT7zrY9-32">
          <mxGeometry x="32.5" y="190" width="215" height="130" as="geometry" />
        </mxCell>
        <mxCell id="dLXsunss4Cly1oT7zrY9-34" value="&lt;span style=&quot;font-size: 11px&quot;&gt;10000&lt;/span&gt;" style="rounded=0;whiteSpace=wrap;html=1;align=center;verticalAlign=middle;fillColor=#e3c800;fontColor=#000000;strokeColor=#B09500;" vertex="1" parent="dLXsunss4Cly1oT7zrY9-33">
          <mxGeometry x="185" y="40" width="30" height="40" as="geometry" />
        </mxCell>
        <mxCell id="dLXsunss4Cly1oT7zrY9-35" value="容器" style="swimlane;labelBackgroundColor=none;fontSize=11;align=center;verticalAlign=middle;fillColor=#dae8fc;strokeColor=#6c8ebf;" vertex="1" parent="dLXsunss4Cly1oT7zrY9-33">
          <mxGeometry x="10" y="50" width="150" height="70" as="geometry">
            <mxRectangle x="10" y="50" width="60" height="23" as="alternateBounds" />
          </mxGeometry>
        </mxCell>
        <mxCell id="dLXsunss4Cly1oT7zrY9-36" value="devmgr进程" style="rounded=1;whiteSpace=wrap;html=1;align=center;verticalAlign=middle;fillColor=#d5e8d4;strokeColor=#82b366;" vertex="1" parent="dLXsunss4Cly1oT7zrY9-35">
          <mxGeometry x="10" y="30" width="110" height="40" as="geometry" />
        </mxCell>
        <mxCell id="dLXsunss4Cly1oT7zrY9-37" value="pod：relayserver-wasdf&#xa;ip：172.17.2.6" style="swimlane;align=center;verticalAlign=middle;startSize=40;fillColor=#1ba1e2;strokeColor=#006EAF;fontColor=#ffffff;" vertex="1" parent="dLXsunss4Cly1oT7zrY9-32">
          <mxGeometry x="32.5" y="30" width="215" height="130" as="geometry" />
        </mxCell>
        <mxCell id="dLXsunss4Cly1oT7zrY9-38" value="&lt;span style=&quot;font-size: 11px&quot;&gt;30410&lt;/span&gt;" style="rounded=0;whiteSpace=wrap;html=1;align=center;verticalAlign=middle;fillColor=#e3c800;fontColor=#000000;strokeColor=#B09500;" vertex="1" parent="dLXsunss4Cly1oT7zrY9-37">
          <mxGeometry x="185" y="40" width="30" height="40" as="geometry" />
        </mxCell>
        <mxCell id="dLXsunss4Cly1oT7zrY9-39" value="容器" style="swimlane;labelBackgroundColor=none;fontSize=11;align=center;verticalAlign=middle;fillColor=#dae8fc;strokeColor=#6c8ebf;" vertex="1" parent="dLXsunss4Cly1oT7zrY9-37">
          <mxGeometry x="10" y="50" width="150" height="70" as="geometry">
            <mxRectangle x="10" y="50" width="60" height="23" as="alternateBounds" />
          </mxGeometry>
        </mxCell>
        <mxCell id="dLXsunss4Cly1oT7zrY9-40" value="relayserver进程" style="rounded=1;whiteSpace=wrap;html=1;align=center;verticalAlign=middle;fillColor=#d5e8d4;strokeColor=#82b366;" vertex="1" parent="dLXsunss4Cly1oT7zrY9-39">
          <mxGeometry x="10" y="30" width="110" height="40" as="geometry" />
        </mxCell>
        <mxCell id="26rxJBJh39qEEJQsGTjf-1" value="pod：relayserver-ssdd&#xa;ip：172.17.2.10" style="swimlane;align=center;verticalAlign=middle;startSize=40;fillColor=#1ba1e2;strokeColor=#006EAF;fontColor=#ffffff;" vertex="1" parent="dLXsunss4Cly1oT7zrY9-32">
          <mxGeometry x="30" y="340" width="215" height="130" as="geometry" />
        </mxCell>
        <mxCell id="26rxJBJh39qEEJQsGTjf-2" value="&lt;span style=&quot;font-size: 11px&quot;&gt;30410&lt;/span&gt;" style="rounded=0;whiteSpace=wrap;html=1;align=center;verticalAlign=middle;fillColor=#e3c800;fontColor=#000000;strokeColor=#B09500;" vertex="1" parent="26rxJBJh39qEEJQsGTjf-1">
          <mxGeometry x="185" y="40" width="30" height="40" as="geometry" />
        </mxCell>
        <mxCell id="26rxJBJh39qEEJQsGTjf-3" value="容器" style="swimlane;labelBackgroundColor=none;fontSize=11;align=center;verticalAlign=middle;fillColor=#dae8fc;strokeColor=#6c8ebf;" vertex="1" parent="26rxJBJh39qEEJQsGTjf-1">
          <mxGeometry x="10" y="50" width="150" height="70" as="geometry">
            <mxRectangle x="10" y="50" width="60" height="23" as="alternateBounds" />
          </mxGeometry>
        </mxCell>
        <mxCell id="26rxJBJh39qEEJQsGTjf-4" value="relayserver进程" style="rounded=1;whiteSpace=wrap;html=1;align=center;verticalAlign=middle;fillColor=#d5e8d4;strokeColor=#82b366;" vertex="1" parent="26rxJBJh39qEEJQsGTjf-3">
          <mxGeometry x="10" y="30" width="110" height="40" as="geometry" />
        </mxCell>
        <mxCell id="dLXsunss4Cly1oT7zrY9-42" value="node3：10.10.15.67" style="swimlane;labelBackgroundColor=none;fontSize=15;align=center;verticalAlign=middle;fillColor=#60a917;fontColor=#ffffff;strokeColor=#2D7600;" vertex="1" parent="dLXsunss4Cly1oT7zrY9-2">
          <mxGeometry x="770" y="180" width="280" height="490" as="geometry" />
        </mxCell>
        <mxCell id="dLXsunss4Cly1oT7zrY9-43" value="pod：relayserver-qascf&#xa;ip：172.17.3.7" style="swimlane;align=center;verticalAlign=middle;startSize=40;fillColor=#1ba1e2;strokeColor=#006EAF;fontColor=#ffffff;" vertex="1" parent="dLXsunss4Cly1oT7zrY9-42">
          <mxGeometry x="32.5" y="30" width="215" height="130" as="geometry" />
        </mxCell>
        <mxCell id="dLXsunss4Cly1oT7zrY9-44" value="&lt;span style=&quot;font-size: 11px&quot;&gt;30410&lt;/span&gt;" style="rounded=0;whiteSpace=wrap;html=1;align=center;verticalAlign=middle;fillColor=#e3c800;fontColor=#000000;strokeColor=#B09500;" vertex="1" parent="dLXsunss4Cly1oT7zrY9-43">
          <mxGeometry x="185" y="40" width="30" height="40" as="geometry" />
        </mxCell>
        <mxCell id="dLXsunss4Cly1oT7zrY9-45" value="容器" style="swimlane;labelBackgroundColor=none;fontSize=11;align=center;verticalAlign=middle;fillColor=#dae8fc;strokeColor=#6c8ebf;" vertex="1" parent="dLXsunss4Cly1oT7zrY9-43">
          <mxGeometry x="10" y="50" width="150" height="70" as="geometry">
            <mxRectangle x="10" y="50" width="60" height="23" as="alternateBounds" />
          </mxGeometry>
        </mxCell>
        <mxCell id="dLXsunss4Cly1oT7zrY9-46" value="relayserver进程" style="rounded=1;whiteSpace=wrap;html=1;align=center;verticalAlign=middle;fillColor=#d5e8d4;strokeColor=#82b366;" vertex="1" parent="dLXsunss4Cly1oT7zrY9-45">
          <mxGeometry x="10" y="30" width="110" height="40" as="geometry" />
        </mxCell>
        <mxCell id="dLXsunss4Cly1oT7zrY9-47" value="pod：netmp-qascf&#xa;ip：172.17.3.11" style="swimlane;align=center;verticalAlign=middle;startSize=40;fillColor=#1ba1e2;strokeColor=#006EAF;fontColor=#ffffff;" vertex="1" parent="dLXsunss4Cly1oT7zrY9-42">
          <mxGeometry x="32.5" y="190" width="215" height="130" as="geometry" />
        </mxCell>
        <mxCell id="dLXsunss4Cly1oT7zrY9-48" value="&lt;span style=&quot;font-size: 11px&quot;&gt;40000&lt;/span&gt;" style="rounded=0;whiteSpace=wrap;html=1;align=center;verticalAlign=middle;fillColor=#e3c800;fontColor=#000000;strokeColor=#B09500;" vertex="1" parent="dLXsunss4Cly1oT7zrY9-47">
          <mxGeometry x="185" y="40" width="30" height="40" as="geometry" />
        </mxCell>
        <mxCell id="dLXsunss4Cly1oT7zrY9-49" value="容器" style="swimlane;labelBackgroundColor=none;fontSize=11;align=center;verticalAlign=middle;fillColor=#dae8fc;strokeColor=#6c8ebf;" vertex="1" parent="dLXsunss4Cly1oT7zrY9-47">
          <mxGeometry x="10" y="50" width="150" height="70" as="geometry">
            <mxRectangle x="10" y="50" width="60" height="23" as="alternateBounds" />
          </mxGeometry>
        </mxCell>
        <mxCell id="dLXsunss4Cly1oT7zrY9-50" value="netmp进程" style="rounded=1;whiteSpace=wrap;html=1;align=center;verticalAlign=middle;fillColor=#d5e8d4;strokeColor=#82b366;" vertex="1" parent="dLXsunss4Cly1oT7zrY9-49">
          <mxGeometry x="10" y="30" width="110" height="40" as="geometry" />
        </mxCell>
        <mxCell id="dLXsunss4Cly1oT7zrY9-51" value="deployment&lt;br&gt;mc&lt;br&gt;副本数：1" style="rounded=1;whiteSpace=wrap;html=1;labelBackgroundColor=#FFFFFF;fontSize=15;align=center;verticalAlign=middle;" vertex="1" parent="dLXsunss4Cly1oT7zrY9-2">
          <mxGeometry y="230" width="90" height="60" as="geometry" />
        </mxCell>
        <mxCell id="dLXsunss4Cly1oT7zrY9-52" style="edgeStyle=orthogonalEdgeStyle;rounded=0;orthogonalLoop=1;jettySize=auto;html=1;exitX=0.5;exitY=1;exitDx=0;exitDy=0;entryX=0;entryY=0.25;entryDx=0;entryDy=0;fontSize=15;strokeColor=#3700CC;strokeWidth=2;fillColor=#6a00ff;" edge="1" parent="dLXsunss4Cly1oT7zrY9-2" source="dLXsunss4Cly1oT7zrY9-8" target="dLXsunss4Cly1oT7zrY9-20">
          <mxGeometry relative="1" as="geometry">
            <Array as="points">
              <mxPoint x="285" y="170" />
              <mxPoint x="120" y="170" />
              <mxPoint x="120" y="243" />
            </Array>
          </mxGeometry>
        </mxCell>
        <mxCell id="dLXsunss4Cly1oT7zrY9-53" style="edgeStyle=orthogonalEdgeStyle;rounded=0;orthogonalLoop=1;jettySize=auto;html=1;exitX=1;exitY=0.75;exitDx=0;exitDy=0;entryX=1;entryY=0.5;entryDx=0;entryDy=0;fontSize=15;strokeColor=#000000;strokeWidth=2;" edge="1" parent="dLXsunss4Cly1oT7zrY9-2" source="dLXsunss4Cly1oT7zrY9-24" target="dLXsunss4Cly1oT7zrY9-9">
          <mxGeometry relative="1" as="geometry" />
        </mxCell>
        <mxCell id="dLXsunss4Cly1oT7zrY9-54" style="edgeStyle=orthogonalEdgeStyle;rounded=0;orthogonalLoop=1;jettySize=auto;html=1;exitX=1;exitY=0.75;exitDx=0;exitDy=0;entryX=1;entryY=0.5;entryDx=0;entryDy=0;fontSize=15;strokeColor=#000000;strokeWidth=2;" edge="1" parent="dLXsunss4Cly1oT7zrY9-2" source="dLXsunss4Cly1oT7zrY9-28" target="dLXsunss4Cly1oT7zrY9-9">
          <mxGeometry relative="1" as="geometry" />
        </mxCell>
        <mxCell id="dLXsunss4Cly1oT7zrY9-55" value="注册" style="edgeLabel;html=1;align=center;verticalAlign=middle;resizable=0;points=[];fontSize=15;" vertex="1" connectable="0" parent="dLXsunss4Cly1oT7zrY9-54">
          <mxGeometry x="-0.2339" y="1" relative="1" as="geometry">
            <mxPoint y="1" as="offset" />
          </mxGeometry>
        </mxCell>
        <mxCell id="dLXsunss4Cly1oT7zrY9-56" style="edgeStyle=orthogonalEdgeStyle;rounded=0;orthogonalLoop=1;jettySize=auto;html=1;exitX=0;exitY=0.25;exitDx=0;exitDy=0;entryX=1;entryY=0.5;entryDx=0;entryDy=0;fontSize=15;strokeColor=#000000;strokeWidth=2;" edge="1" parent="dLXsunss4Cly1oT7zrY9-2" source="dLXsunss4Cly1oT7zrY9-37" target="dLXsunss4Cly1oT7zrY9-9">
          <mxGeometry relative="1" as="geometry">
            <Array as="points">
              <mxPoint x="411" y="243" />
              <mxPoint x="411" y="116" />
            </Array>
          </mxGeometry>
        </mxCell>
        <mxCell id="dLXsunss4Cly1oT7zrY9-57" value="注册" style="edgeLabel;html=1;align=center;verticalAlign=middle;resizable=0;points=[];fontSize=15;" vertex="1" connectable="0" parent="dLXsunss4Cly1oT7zrY9-56">
          <mxGeometry x="-0.2554" y="-2" relative="1" as="geometry">
            <mxPoint as="offset" />
          </mxGeometry>
        </mxCell>
        <mxCell id="dLXsunss4Cly1oT7zrY9-58" style="edgeStyle=orthogonalEdgeStyle;rounded=0;orthogonalLoop=1;jettySize=auto;html=1;exitX=0;exitY=0.25;exitDx=0;exitDy=0;entryX=1;entryY=0.5;entryDx=0;entryDy=0;fontSize=15;strokeColor=#000000;strokeWidth=2;" edge="1" parent="dLXsunss4Cly1oT7zrY9-2" source="dLXsunss4Cly1oT7zrY9-43" target="dLXsunss4Cly1oT7zrY9-9">
          <mxGeometry relative="1" as="geometry">
            <Array as="points">
              <mxPoint x="760" y="243" />
              <mxPoint x="760" y="160" />
              <mxPoint x="410" y="160" />
              <mxPoint x="410" y="116" />
            </Array>
          </mxGeometry>
        </mxCell>
        <mxCell id="dLXsunss4Cly1oT7zrY9-59" style="edgeStyle=orthogonalEdgeStyle;rounded=0;orthogonalLoop=1;jettySize=auto;html=1;exitX=0;exitY=0.25;exitDx=0;exitDy=0;entryX=1;entryY=0.5;entryDx=0;entryDy=0;fontSize=15;strokeColor=#000000;strokeWidth=2;" edge="1" parent="dLXsunss4Cly1oT7zrY9-2" source="dLXsunss4Cly1oT7zrY9-47" target="dLXsunss4Cly1oT7zrY9-9">
          <mxGeometry relative="1" as="geometry">
            <Array as="points">
              <mxPoint x="760" y="403" />
              <mxPoint x="760" y="160" />
              <mxPoint x="410" y="160" />
              <mxPoint x="410" y="116" />
            </Array>
          </mxGeometry>
        </mxCell>
        <mxCell id="dLXsunss4Cly1oT7zrY9-60" value="注册" style="edgeLabel;html=1;align=center;verticalAlign=middle;resizable=0;points=[];fontSize=15;" vertex="1" connectable="0" parent="dLXsunss4Cly1oT7zrY9-59">
          <mxGeometry x="0.0338" y="-1" relative="1" as="geometry">
            <mxPoint as="offset" />
          </mxGeometry>
        </mxCell>
        <mxCell id="dLXsunss4Cly1oT7zrY9-61" style="edgeStyle=orthogonalEdgeStyle;rounded=0;orthogonalLoop=1;jettySize=auto;html=1;exitX=0.5;exitY=1;exitDx=0;exitDy=0;entryX=1;entryY=0.25;entryDx=0;entryDy=0;fontSize=15;strokeColor=#3700CC;strokeWidth=2;fillColor=#6a00ff;" edge="1" parent="dLXsunss4Cly1oT7zrY9-2" source="dLXsunss4Cly1oT7zrY9-16" target="dLXsunss4Cly1oT7zrY9-37">
          <mxGeometry relative="1" as="geometry">
            <Array as="points">
              <mxPoint x="825" y="170" />
              <mxPoint x="740" y="170" />
              <mxPoint x="740" y="243" />
            </Array>
          </mxGeometry>
        </mxCell>
        <mxCell id="dLXsunss4Cly1oT7zrY9-62" style="edgeStyle=orthogonalEdgeStyle;rounded=0;orthogonalLoop=1;jettySize=auto;html=1;exitX=0.5;exitY=1;exitDx=0;exitDy=0;entryX=0.919;entryY=0;entryDx=0;entryDy=0;entryPerimeter=0;fontSize=15;strokeColor=#3700CC;strokeWidth=2;fillColor=#6a00ff;" edge="1" parent="dLXsunss4Cly1oT7zrY9-2" source="dLXsunss4Cly1oT7zrY9-16" target="dLXsunss4Cly1oT7zrY9-43">
          <mxGeometry relative="1" as="geometry">
            <Array as="points">
              <mxPoint x="825" y="170" />
              <mxPoint x="1000" y="170" />
            </Array>
          </mxGeometry>
        </mxCell>
        <mxCell id="dLXsunss4Cly1oT7zrY9-63" value="注册：&lt;br&gt;1. 内网通信服务使用podip进行注册&lt;br&gt;2. 与外网通信的流服务使用nodeip注册&lt;br&gt;3. 与外网通信的信令服务使用vip注册" style="shape=note;whiteSpace=wrap;html=1;backgroundOutline=1;darkOpacity=0.05;labelBackgroundColor=none;fontSize=15;align=left;verticalAlign=middle;fillColor=#fff2cc;strokeColor=#d6b656;" vertex="1" parent="dLXsunss4Cly1oT7zrY9-2">
          <mxGeometry x="30" y="680" width="270" height="100" as="geometry" />
        </mxCell>
        <mxCell id="dLXsunss4Cly1oT7zrY9-64" value="service：可以指定具体的nodePort" style="shape=note;whiteSpace=wrap;html=1;backgroundOutline=1;darkOpacity=0.05;labelBackgroundColor=none;fontSize=15;align=left;verticalAlign=middle;fillColor=#fff2cc;strokeColor=#d6b656;" vertex="1" parent="dLXsunss4Cly1oT7zrY9-2">
          <mxGeometry x="10" y="30" width="140" height="80" as="geometry" />
        </mxCell>
        <mxCell id="dLXsunss4Cly1oT7zrY9-65" value="设备注册列表(不同服务使用的不同类型的ip注册)：&lt;br&gt;1. devmgr：172.17.1.1:10000,172.17.2.3:10000&lt;br&gt;2. mc: 172.17.1.9:20000&lt;br&gt;3. relayserver: 10.10.15.65:30410,10.10.15.67:30410&lt;br&gt;10.10.15.65:30410&lt;br&gt;4. relaymc: 10.10.15.66:30000&lt;br&gt;5. netmp: 172.17.3.11:40000" style="shape=note;whiteSpace=wrap;html=1;backgroundOutline=1;darkOpacity=0.05;labelBackgroundColor=none;fontSize=15;align=left;verticalAlign=middle;fillColor=#fff2cc;strokeColor=#d6b656;" vertex="1" parent="dLXsunss4Cly1oT7zrY9-2">
          <mxGeometry x="320" y="675" width="370" height="120" as="geometry" />
        </mxCell>
        <mxCell id="dLXsunss4Cly1oT7zrY9-66" value="客户端流服务数据走向：&lt;br&gt;1. ter1-&amp;gt;10.10.15.67:30410-&amp;gt;relayserver_service-&amp;gt; 172.17.3.7:30410(service可以配置只访问当前节点的pod)&lt;br&gt;2. ter2-&amp;gt;10.10.15.65:30410-&amp;gt;relayserver_service-&amp;gt; 172.17.2.6:30410(或者172.17.2.10:30410)" style="shape=note;whiteSpace=wrap;html=1;backgroundOutline=1;darkOpacity=0.05;labelBackgroundColor=none;fontSize=15;align=left;verticalAlign=middle;fillColor=#fff2cc;strokeColor=#d6b656;" vertex="1" parent="dLXsunss4Cly1oT7zrY9-2">
          <mxGeometry x="710" y="680" width="360" height="110" as="geometry" />
        </mxCell>
        <mxCell id="26rxJBJh39qEEJQsGTjf-0" value="relayserver启动过程(其他服务都是)：&lt;br&gt;1. 制作docker镜像时，提前在启动文件中处理好启动逻辑，镜像的启动文件是由relayserver.sh-》relayserver-docker.sh改动而来&lt;br&gt;2. 在relayserver-docker.sh文件开始处，先获得环境变量用来更新配置文件，后面的操作不变。&lt;br&gt;3. 整体就是在程序启动前根据pod传递的环境变量修改配置文件&lt;br&gt;4. 在一个节点中启动了2个pod，注册列表会出现2个ip和端口一样的relayserver" style="shape=note;whiteSpace=wrap;html=1;backgroundOutline=1;darkOpacity=0.05;labelBackgroundColor=none;fontSize=15;align=left;verticalAlign=middle;fillColor=#fff2cc;strokeColor=#d6b656;" vertex="1" parent="dLXsunss4Cly1oT7zrY9-2">
          <mxGeometry x="20" y="800" width="490" height="150" as="geometry" />
        </mxCell>
        <mxCell id="dLXsunss4Cly1oT7zrY9-41" value="tcpsocket链接：&lt;br&gt;1. 第一次建立链接是通过service的负载规则选择一个pod进行链接&lt;br&gt;2. 之后会一直和这个pod保持链接&lt;br&gt;3. 链接阶段，如果pod销毁，会重新发起链接，重新走第一步" style="shape=note;whiteSpace=wrap;html=1;backgroundOutline=1;darkOpacity=0.05;labelBackgroundColor=none;fontSize=15;align=left;verticalAlign=middle;fillColor=#fff2cc;strokeColor=#d6b656;" vertex="1" parent="dLXsunss4Cly1oT7zrY9-2">
          <mxGeometry x="550" y="820" width="300" height="110" as="geometry" />
        </mxCell>
      </root>
    </mxGraphModel>
  </diagram>
</mxfile>
